<?xml version="1.0" encoding="utf-8"?>
<!-- Generator: Adobe Illustrator 18.1.1, SVG Export Plug-In . SVG Version: 6.00 Build 0)  -->
<svg version="1.1" id="Layer_1" xmlns:sketch="http://www.bohemiancoding.com/sketch/ns"
	 xmlns="http://www.w3.org/2000/svg" xmlns:xlink="http://www.w3.org/1999/xlink" x="0px" y="0px" viewBox="118 -118 296 296"
	 enable-background="new 118 -118 296 296" xml:space="preserve">
<title>lock</title>
<desc>Created with Sketch.</desc>
<path id="Fill-1" sketch:type="MSShapeGroup" fill="#F0F8FC" d="M404.4,26.8c0,77.8-63.1,140.9-140.9,140.9S122.6,104.6,122.6,26.8
	s63.1-140.9,140.9-140.9S404.4-51,404.4,26.8"/>
<polygon fill="#C0D6E4" stroke="#005082" stroke-width="2" stroke-miterlimit="10" points="305.2,-56 236.8,-56 236.8,92.7 
	342.7,92.7 342.7,-18.5 "/>
<polygon fill="#C0D6E4" stroke="#005082" stroke-width="2" stroke-miterlimit="10" points="342.7,-18.5 305.2,-56 303.2,-56 
	303.2,-16.7 342.7,-16.7 "/>
<g opacity="0.2">
	<path fill="#309ACC" d="M285.1,7.6C271.5-6,249.5-6,235.9,7.6c-11.8,11.8-13.3,29.9-4.7,43.3L221,61.1l10,10L241.2,61
		c13.5,9.1,32,7.6,43.9-4.3C298.7,43.1,298.7,21.1,285.1,7.6z M280.8,52.5c-11.2,11.2-29.4,11.2-40.7,0C229,41.2,229,23,240.2,11.8
		c11.2-11.2,29.4-11.2,40.7,0C292.1,23,292.1,41.2,280.8,52.5z"/>
	
		<rect x="199.1" y="57.2" transform="matrix(-0.7071 -0.7071 0.7071 -0.7071 287.1665 294.2782)" fill="#309ACC" width="10.8" height="60.9"/>
</g>
<g>
	<g>
		<path fill="#C0D6E4" stroke="#005082" stroke-width="2" stroke-miterlimit="10" d="M223.1-7c4.5-2.5,9.8-4,15.3-4
			c17.3,0,31.3,14,31.3,31.3s-14,31.3-31.3,31.3c-5.6,0-10.8-1.5-15.3-4V-7z"/>
		<path opacity="0.2" fill="#309ACC" d="M234.2,9.1c6.9-6.9,15.7-10.5,24.6-11c-2.1-2.7-4.7-5-7.6-6.9C243-7.1,235.1-3,228.6,3.5
			c-10.9,10.9-15.2,26-12.7,40.2c2.8,1.9,5.9,3.5,9.2,4.4C220.6,34.8,223.6,19.6,234.2,9.1z"/>
	</g>
	<g>
		
			<rect x="200.3" y="41.9" transform="matrix(-0.7071 0.7071 -0.7071 -0.7071 388.9762 -63.2283)" fill="#F3C142" stroke="#005082" stroke-width="2" stroke-miterlimit="10" width="14.5" height="14.2"/>
		<g>
			<path fill="#F3C142" d="M236.9,55.8c-9.5,0-18.5-3.7-25.3-10.5c-6.8-6.8-10.5-15.7-10.5-25.3c0-9.5,3.7-18.5,10.5-25.3
				s15.7-10.5,25.3-10.5c9.5,0,18.5,3.7,25.3,10.5c13.9,13.9,13.9,36.6,0,50.6C255.5,52.1,246.5,55.8,236.9,55.8z M236.9-7.7
				c-7.4,0-14.4,2.9-19.6,8.1c-10.8,10.8-10.8,28.4,0,39.2c5.2,5.2,12.2,8.1,19.6,8.1c7.4,0,14.4-2.9,19.6-8.1s8.1-12.2,8.1-19.6
				c0-7.4-2.9-14.4-8.1-19.6S244.3-7.7,236.9-7.7z"/>
			<path fill="#005082" d="M236.9-14.7c8.9,0,17.8,3.4,24.6,10.2c13.6,13.6,13.6,35.6,0,49.1c-6.8,6.8-15.7,10.2-24.6,10.2
				s-17.8-3.4-24.6-10.2c-13.6-13.6-13.6-35.6,0-49.1C219.1-11.3,228-14.7,236.9-14.7 M236.9,48.8c7.4,0,14.7-2.8,20.3-8.4
				c11.2-11.2,11.2-29.4,0-40.7c-5.6-5.6-13-8.4-20.3-8.4s-14.7,2.8-20.3,8.4c-11.2,11.2-11.2,29.4,0,40.7
				C222.2,46,229.6,48.8,236.9,48.8 M236.9-16.7c-9.8,0-19,3.8-26,10.8c-6.9,6.9-10.8,16.2-10.8,26c0,9.8,3.8,19,10.8,26
				c6.9,6.9,16.2,10.8,26,10.8s19-3.8,26-10.8c6.9-6.9,10.8-16.2,10.8-26c0-9.8-3.8-19-10.8-26C256-12.9,246.7-16.7,236.9-16.7
				L236.9-16.7z M236.9,46.8c-7.1,0-13.9-2.8-18.9-7.8c-10.4-10.4-10.4-27.4,0-37.8c5.1-5.1,11.8-7.8,18.9-7.8s13.9,2.8,18.9,7.8
				c10.4,10.4,10.4,27.4,0,37.8C250.8,44,244.1,46.8,236.9,46.8L236.9,46.8z"/>
		</g>
		
			<rect x="150.5" y="70.2" transform="matrix(-0.7071 0.7071 -0.7071 -0.7071 362.3326 1.095)" fill="#309ACC" stroke="#005082" stroke-width="2" stroke-miterlimit="10" width="60.9" height="10.8"/>
	</g>
</g>
<g>
	<path fill="#005082" d="M180.3,22.8c0-0.3,0-0.6,0-0.9c0-1.7,0.6-3.1,2.2-4.1l1.2-0.8c0.9-0.6,1.4-1.6,1.4-2.6c0-1.6-1-3-3.1-3
		c-2.3,0-3.3,1.7-3.3,3.4c0,0.4,0.1,1,0.2,1.3l-2.6-0.3c-0.1-0.4-0.2-0.8-0.2-1.3c0-2.4,1.8-5.4,5.8-5.4c3.7,0,5.8,2.6,5.8,5.3
		c0,2.1-1.2,3.6-2.7,4.6l-1.2,0.8c-0.8,0.6-1.2,1.5-1.2,2.5c0,0.1,0,0.2,0,0.5H180.3z M181.5,24.8c1,0,1.7,0.8,1.7,1.7
		c0,1-0.8,1.7-1.7,1.7c-1,0-1.7-0.8-1.7-1.7C179.8,25.6,180.5,24.8,181.5,24.8z"/>
</g>
<path fill="#F0F8FC" d="M258.1,8.8c0.1,0.9,0.1,1.7,0.1,2.6c0,13.8-11.2,25-25,25c-6.6,0-12.6-2.6-17.1-6.7
	c3.8,7.8,11.8,13.1,21.1,13.1c13,0,23.5-10.5,23.5-23.5C260.7,15.6,259.7,12,258.1,8.8z"/>
</svg>
