<?xml version="1.0" encoding="utf-8"?>
<!-- Generator: Adobe Illustrator 24.2.0, SVG Export Plug-In . SVG Version: 6.00 Build 0)  -->
<svg version="1.1" id="Layer_1" xmlns:sketch="http://www.bohemiancoding.com/sketch/ns"
	 xmlns="http://www.w3.org/2000/svg" xmlns:xlink="http://www.w3.org/1999/xlink" x="0px" y="0px" viewBox="0 0 296 296"
	 style="enable-background:new 0 0 296 296;" xml:space="preserve">
<style type="text/css">
	.st0{fill:#4D4D4D;stroke:#B3B3B3;stroke-width:2;stroke-miterlimit:10;}
	.st1{fill:#666666;stroke:#B3B3B3;stroke-width:2;stroke-miterlimit:10;}
	.st2{opacity:0.2;}
	.st3{fill:#424242;stroke:#E0E0E0;stroke-width:2;stroke-miterlimit:10;}
	.st4{opacity:0.2;enable-background:new    ;}
	.st5{fill:#F3C142;stroke:#005082;stroke-width:2;stroke-miterlimit:9.9999;}
	.st6{fill:#F3C142;}
	.st7{fill:#005082;}
	.st8{fill:#309ACC;stroke:#005082;stroke-width:2;stroke-miterlimit:9.9999;}
	.st9{fill:#FFFFFF;}
	.st10{fill:#F0F8FC;}
</style>
<desc>Created with Sketch.</desc>
<polygon class="st0" points="187.2,62 118.8,62 118.8,210.7 224.7,210.7 224.7,99.5 "/>
<polygon class="st1" points="224.7,99.5 187.2,62 185.2,62 185.2,101.3 224.7,101.3 "/>
<g class="st2">
	<path d="M167.1,125.6c-13.6-13.6-35.6-13.6-49.2,0c-11.8,11.8-13.3,29.9-4.7,43.3L103,179.1l10,10l10.2-10.1
		c13.5,9.1,32,7.6,43.9-4.3C180.7,161.1,180.7,139.1,167.1,125.6z M162.8,170.5c-11.2,11.2-29.4,11.2-40.7,0
		c-11.1-11.3-11.1-29.5,0.1-40.7s29.4-11.2,40.7,0C174.1,141,174.1,159.2,162.8,170.5z"/>
	<rect x="56.1" y="200.3" transform="matrix(0.7071 -0.7071 0.7071 0.7071 -120.1036 121.4422)" width="60.9" height="10.8"/>
</g>
<g>
	<g>
		<path class="st3" d="M105.1,111c4.5-2.5,9.8-4,15.3-4c17.3,0,31.3,14,31.3,31.3s-14,31.3-31.3,31.3c-5.6,0-10.8-1.5-15.3-4V111z"
			/>
		<path class="st4" d="M116.2,127.1c6.9-6.9,15.7-10.5,24.6-11c-2.1-2.7-4.7-5-7.6-6.9c-8.2,1.7-16.1,5.8-22.6,12.3
			c-10.9,10.9-15.2,26-12.7,40.2c2.8,1.9,5.9,3.5,9.2,4.4C102.6,152.8,105.6,137.6,116.2,127.1z"/>
	</g>
	<g>
		
			<rect x="82.3" y="159.8" transform="matrix(0.7071 -0.7071 0.7071 0.7071 -91.7693 112.2141)" class="st5" width="14.5" height="14.2"/>
		<g>
			<path class="st6" d="M118.9,173.8c-9.5,0-18.5-3.7-25.3-10.5S83.1,147.6,83.1,138c0-9.5,3.7-18.5,10.5-25.3
				c6.8-6.8,15.7-10.5,25.3-10.5c9.5,0,18.5,3.7,25.3,10.5c13.9,13.9,13.9,36.6,0,50.6C137.5,170.1,128.5,173.8,118.9,173.8z
				 M118.9,110.3c-7.4,0-14.4,2.9-19.6,8.1c-10.8,10.8-10.8,28.4,0,39.2c5.2,5.2,12.2,8.1,19.6,8.1c7.4,0,14.4-2.9,19.6-8.1
				s8.1-12.2,8.1-19.6c0-7.4-2.9-14.4-8.1-19.6C133.3,113.2,126.3,110.3,118.9,110.3z"/>
			<path class="st7" d="M118.9,103.3c8.9,0,17.8,3.4,24.6,10.2c13.6,13.6,13.6,35.6,0,49.1c-6.8,6.8-15.7,10.2-24.6,10.2
				s-17.8-3.4-24.6-10.2c-13.6-13.6-13.6-35.6,0-49.1C101.1,106.7,110,103.3,118.9,103.3 M118.9,166.8c7.4,0,14.7-2.8,20.3-8.4
				c11.2-11.2,11.2-29.4,0-40.7c-5.6-5.6-13-8.4-20.3-8.4s-14.7,2.8-20.3,8.4c-11.2,11.2-11.2,29.4,0,40.7
				C104.2,164,111.6,166.8,118.9,166.8 M118.9,101.3c-9.8,0-19,3.8-26,10.8c-6.9,6.9-10.8,16.2-10.8,26c0,9.8,3.8,19,10.8,26
				c6.9,6.9,16.2,10.8,26,10.8s19-3.8,26-10.8c6.9-6.9,10.8-16.2,10.8-26c0-9.8-3.8-19-10.8-26C138,105.1,128.7,101.3,118.9,101.3
				L118.9,101.3z M118.9,164.8c-7.1,0-13.9-2.8-18.9-7.8c-10.4-10.4-10.4-27.4,0-37.8c5.1-5.1,11.8-7.8,18.9-7.8s13.9,2.8,18.9,7.8
				c10.4,10.4,10.4,27.4,0,37.8C132.8,162,126.1,164.8,118.9,164.8L118.9,164.8z"/>
		</g>
		
			<rect x="32.5" y="188.2" transform="matrix(0.7071 -0.7071 0.7071 0.7071 -118.4567 101.1961)" class="st8" width="60.9" height="10.8"/>
	</g>
</g>
<g>
	<path class="st9" d="M62.3,140.8c0-0.3,0-0.6,0-0.9c0-1.7,0.6-3.1,2.2-4.1l1.2-0.8c0.9-0.6,1.4-1.6,1.4-2.6c0-1.6-1-3-3.1-3
		c-2.3,0-3.3,1.7-3.3,3.4c0,0.4,0.1,1,0.2,1.3l-2.6-0.3c-0.1-0.4-0.2-0.8-0.2-1.3c0-2.4,1.8-5.4,5.8-5.4c3.7,0,5.8,2.6,5.8,5.3
		c0,2.1-1.2,3.6-2.7,4.6l-1.2,0.8c-0.8,0.6-1.2,1.5-1.2,2.5c0,0.1,0,0.2,0,0.5C64.6,140.8,62.3,140.8,62.3,140.8z M63.5,142.8
		c1,0,1.7,0.8,1.7,1.7c0,1-0.8,1.7-1.7,1.7c-1,0-1.7-0.8-1.7-1.7S62.5,142.8,63.5,142.8z"/>
</g>
<path class="st10" d="M140.1,126.8c0.1,0.9,0.1,1.7,0.1,2.6c0,13.8-11.2,25-25,25c-6.6,0-12.6-2.6-17.1-6.7
	c3.8,7.8,11.8,13.1,21.1,13.1c13,0,23.5-10.5,23.5-23.5C142.7,133.6,141.7,130,140.1,126.8z"/>
</svg>
