<svg xmlns="http://www.w3.org/2000/svg" viewBox="0 0 300.11 42.36">
  <g id="Layer_2" data-name="Layer 2">
    <g id="logo">
      <g>
        <g>
          <path d="M0,.57H4l7.6,17.58h.07L19.29.57h3.87V23H20.5V4.18h-.07L12.39,23H10.77l-8-18.82H2.66V23H0Z" style="fill: #fff"/>
          <path d="M29.52.57h14.1V3H32.18v7H42.86v2.47H32.18v8h12V23H29.52Z" style="fill: #fff"/>
          <path d="M48.69.57H57.3a11.69,11.69,0,0,1,2.35.25,11.53,11.53,0,0,1,2.45.81,11.34,11.34,0,0,1,2.35,1.44,9.65,9.65,0,0,1,2,2.14,10.94,10.94,0,0,1,1.36,2.88,12.37,12.37,0,0,1,.51,3.69,12.28,12.28,0,0,1-.51,3.69,10.86,10.86,0,0,1-1.36,2.89,9.88,9.88,0,0,1-2,2.14,11.34,11.34,0,0,1-2.35,1.44,11,11,0,0,1-2.45.8A11.73,11.73,0,0,1,57.3,23H48.69Zm2.66,20h5.07A12.1,12.1,0,0,0,60,20a7.77,7.77,0,0,0,2.85-1.57,7.48,7.48,0,0,0,1.9-2.71,10.17,10.17,0,0,0,.69-4,10.24,10.24,0,0,0-.69-4,7.44,7.44,0,0,0-1.9-2.7A7.77,7.77,0,0,0,60,3.55,12.1,12.1,0,0,0,56.42,3H51.35Z" style="fill: #fff"/>
          <path d="M73.36.57H76V23H73.36Z" style="fill: #fff"/>
          <path d="M98.1,5.2a6.43,6.43,0,0,0-2.5-2.05,7.44,7.44,0,0,0-3.1-.68,7.74,7.74,0,0,0-3.44.76,8.68,8.68,0,0,0-2.71,2,9.39,9.39,0,0,0-1.77,3,9.85,9.85,0,0,0-.64,3.53,10.2,10.2,0,0,0,.64,3.66,9.18,9.18,0,0,0,1.76,3,8.32,8.32,0,0,0,2.69,2,8.2,8.2,0,0,0,3.47.73,8.08,8.08,0,0,0,3.67-.81A8.35,8.35,0,0,0,99,18l2,1.68a9.39,9.39,0,0,1-3.66,3,11.86,11.86,0,0,1-4.83.95,11.4,11.4,0,0,1-4.5-.89,11.24,11.24,0,0,1-3.63-2.45A11.58,11.58,0,0,1,82,16.5a12.47,12.47,0,0,1-.87-4.72,12.63,12.63,0,0,1,.84-4.62,11.28,11.28,0,0,1,2.36-3.74A11.2,11.2,0,0,1,92.5,0a11.87,11.87,0,0,1,4.38.82,8.06,8.06,0,0,1,3.54,2.7Z" style="fill: #fff"/>
          <path d="M112.77.57h2.5L124.81,23H121.7l-2.28-5.51H108.21L105.9,23h-3ZM114,4h-.06l-4.66,11h9.16Z" style="fill: #fff"/>
          <path d="M128.58.57h2.66v20H141.5V23H128.58Z" style="fill: #fff"/>
          <path d="M154.81.57h2.66v9.5h12V.57h2.66V23h-2.66V12.54h-12V23h-2.66Z" style="fill: #fff"/>
          <path d="M188.89,23.57a12.15,12.15,0,0,1-4.7-.89,11.37,11.37,0,0,1-3.71-2.45A11.07,11.07,0,0,1,178,16.49a12.57,12.57,0,0,1-.87-4.71,12.51,12.51,0,0,1,.87-4.7,11,11,0,0,1,2.44-3.74A11.37,11.37,0,0,1,184.19.89a12.86,12.86,0,0,1,9.4,0,11.27,11.27,0,0,1,3.71,2.45,11,11,0,0,1,2.44,3.74,12.51,12.51,0,0,1,.87,4.7,12.57,12.57,0,0,1-.87,4.71,11.07,11.07,0,0,1-2.44,3.74,11.27,11.27,0,0,1-3.71,2.45A12.15,12.15,0,0,1,188.89,23.57Zm0-2.47a8.84,8.84,0,0,0,3.6-.73,8.53,8.53,0,0,0,2.8-2,9,9,0,0,0,1.82-3,10.43,10.43,0,0,0,0-7.25,9,9,0,0,0-1.82-3,8.53,8.53,0,0,0-2.8-2,9.24,9.24,0,0,0-7.2,0,8.53,8.53,0,0,0-2.8,2,9,9,0,0,0-1.82,3,10.43,10.43,0,0,0,0,7.25,9,9,0,0,0,1.82,3,8.53,8.53,0,0,0,2.8,2A8.84,8.84,0,0,0,188.89,21.1Z" style="fill: #fff"/>
          <path d="M205.68.57h5.73a26.63,26.63,0,0,1,3.22.19,8.75,8.75,0,0,1,2.86.82,5.12,5.12,0,0,1,2.06,1.86,6,6,0,0,1,.8,3.31,5.49,5.49,0,0,1-1.49,4,7.14,7.14,0,0,1-4.12,1.93L221.11,23h-3.27l-6.08-10.08h-3.42V23h-2.66Zm2.66,9.88h2.38c.74,0,1.5,0,2.29-.06A8,8,0,0,0,215.2,10a3.92,3.92,0,0,0,1.65-1.09,3.18,3.18,0,0,0,.64-2.14A3.51,3.51,0,0,0,217,4.81a3.21,3.21,0,0,0-1.25-1.12A5.35,5.35,0,0,0,214,3.17,14.19,14.19,0,0,0,212.08,3h-3.74Z" style="fill: #fff"/>
          <path d="M225.83.57h2.66V23h-2.66Z" style="fill: #fff"/>
          <path d="M233,20.62,245.94,3H233.17V.57h16V2.85L236.22,20.53h13.11V23H233Z" style="fill: #fff"/>
          <path d="M264.25,23.57a12.15,12.15,0,0,1-4.7-.89,11.27,11.27,0,0,1-3.71-2.45,11.07,11.07,0,0,1-2.44-3.74,12.57,12.57,0,0,1-.87-4.71,12.51,12.51,0,0,1,.87-4.7,11,11,0,0,1,2.44-3.74A11.27,11.27,0,0,1,259.55.89a12.86,12.86,0,0,1,9.4,0,11.37,11.37,0,0,1,3.71,2.45,11,11,0,0,1,2.44,3.74,12.51,12.51,0,0,1,.87,4.7,12.57,12.57,0,0,1-.87,4.71,11.07,11.07,0,0,1-2.44,3.74A11.37,11.37,0,0,1,269,22.68,12.15,12.15,0,0,1,264.25,23.57Zm0-2.47a8.76,8.76,0,0,0,3.59-.73,8.47,8.47,0,0,0,2.81-2,9,9,0,0,0,1.82-3,10.43,10.43,0,0,0,0-7.25,9,9,0,0,0-1.82-3,8.47,8.47,0,0,0-2.81-2,8.76,8.76,0,0,0-10,2,9,9,0,0,0-1.82,3,10.43,10.43,0,0,0,0,7.25,9,9,0,0,0,1.82,3,8.53,8.53,0,0,0,2.8,2A8.84,8.84,0,0,0,264.25,21.1Z" style="fill: #fff"/>
          <path d="M281,.57h3.36l13,18.63h.07V.57h2.66V23h-3.36l-13-18.63h-.06V23H281Z" style="fill: #fff"/>
        </g>
        <g>
          <path d="M52.87,42.28a.31.31,0,0,1-.21-.07.22.22,0,0,1-.1-.21V33.2a.23.23,0,0,1,.1-.2.43.43,0,0,1,.22-.06.44.44,0,0,1,.23.06.23.23,0,0,1,.09.2v8.47H57a.21.21,0,0,1,.19.09.43.43,0,0,1,.06.22.42.42,0,0,1-.06.21.21.21,0,0,1-.19.09Z" style="fill: #fff"/>
          <path d="M65.72,42.28a.4.4,0,0,1-.24-.07.21.21,0,0,1-.12-.21.19.19,0,0,1,0-.08l2.74-8.83a.34.34,0,0,1,.36-.23.39.39,0,0,1,.21.06.31.31,0,0,1,.15.17l2.71,8.83v0s0,0,0,0a.24.24,0,0,1-.12.2.44.44,0,0,1-.25.08.24.24,0,0,1-.26-.19l-.62-2H66.61l-.61,2A.26.26,0,0,1,65.72,42.28Zm4.4-2.81L68.47,34l-1.69,5.46Z" style="fill: #fff"/>
          <path d="M85,33.2a.21.21,0,0,1,.1-.2.4.4,0,0,1,.22-.06.43.43,0,0,1,.22.06.21.21,0,0,1,.1.2v6.47a3.46,3.46,0,0,1-.2,1.24,2.09,2.09,0,0,1-.55.84,2.21,2.21,0,0,1-.82.46,3.58,3.58,0,0,1-2,0,2.21,2.21,0,0,1-.82-.46,2.18,2.18,0,0,1-.54-.84,3.46,3.46,0,0,1-.2-1.24V33.2a.23.23,0,0,1,.1-.2.46.46,0,0,1,.22-.06A.44.44,0,0,1,81,33a.23.23,0,0,1,.09.2v6.47a2.14,2.14,0,0,0,.51,1.58,2.31,2.31,0,0,0,2.87,0A2.1,2.1,0,0,0,85,39.67Z" style="fill: #fff"/>
          <path d="M97.82,32.94a3.29,3.29,0,0,1,1,.14,2.27,2.27,0,0,1,.83.47,2.16,2.16,0,0,1,.55.83,3.46,3.46,0,0,1,.2,1.24v4a3.5,3.5,0,0,1-.2,1.24,2.16,2.16,0,0,1-.55.83,2.27,2.27,0,0,1-.83.47,3.62,3.62,0,0,1-1,.14H95.56a.31.31,0,0,1-.22-.08.26.26,0,0,1-.09-.19V33.2a.24.24,0,0,1,.09-.18.27.27,0,0,1,.22-.08Zm-1.93.61v8.12h1.93a2,2,0,0,0,1.44-.5,2.12,2.12,0,0,0,.51-1.57v-4a2.1,2.1,0,0,0-.51-1.57,2,2,0,0,0-1.44-.5Z" style="fill: #fff"/>
          <path d="M112.49,42.36a3.31,3.31,0,0,1-1-.15,2,2,0,0,1-1.35-1.3,3.26,3.26,0,0,1-.2-1.24V35.62a3.26,3.26,0,0,1,.2-1.24,2.14,2.14,0,0,1,.54-.83,2.19,2.19,0,0,1,.81-.47,3.75,3.75,0,0,1,2,0,2.23,2.23,0,0,1,.82.47,2,2,0,0,1,.55.83,3.26,3.26,0,0,1,.2,1.24v4.05a3.26,3.26,0,0,1-.2,1.24,2.09,2.09,0,0,1-.55.84,2.21,2.21,0,0,1-.82.46A3.33,3.33,0,0,1,112.49,42.36Zm1.94-6.74a2.1,2.1,0,0,0-.51-1.57,2.29,2.29,0,0,0-2.86,0,2.14,2.14,0,0,0-.5,1.57v4.05a2.19,2.19,0,0,0,.5,1.58,2.29,2.29,0,0,0,2.86,0,2.14,2.14,0,0,0,.51-1.58Z" style="fill: #fff"/>
          <path d="M126.64,41.75a2.16,2.16,0,0,0,1.51-.48,1.86,1.86,0,0,0,.53-1.44,2.25,2.25,0,0,0-.19-1,1.67,1.67,0,0,0-.49-.62,2.57,2.57,0,0,0-.68-.41c-.26-.11-.52-.21-.79-.3s-.53-.2-.78-.31a2.65,2.65,0,0,1-.69-.42,1.87,1.87,0,0,1-.48-.65,2.15,2.15,0,0,1-.19-1,2.4,2.4,0,0,1,.25-1.14,2.1,2.1,0,0,1,.63-.69,2.53,2.53,0,0,1,.85-.34,4.66,4.66,0,0,1,.88-.1,4.77,4.77,0,0,1,.76.06,4,4,0,0,1,.66.16,1.79,1.79,0,0,1,.48.24c.12.09.19.18.19.27a.45.45,0,0,1-.09.24.23.23,0,0,1-.21.13.46.46,0,0,1-.21-.07,1.91,1.91,0,0,0-.35-.17,3.37,3.37,0,0,0-.51-.17,3.17,3.17,0,0,0-.73-.07,3.35,3.35,0,0,0-.71.07,1.67,1.67,0,0,0-.63.25,1.42,1.42,0,0,0-.44.5,1.49,1.49,0,0,0-.18.77,1.42,1.42,0,0,0,.32,1,2.4,2.4,0,0,0,.79.56,7.34,7.34,0,0,0,1,.39,4,4,0,0,1,1,.46,2.61,2.61,0,0,1,.8.82,2.73,2.73,0,0,1,.32,1.41,3.11,3.11,0,0,1-.2,1.17,2.41,2.41,0,0,1-.55.82,2.13,2.13,0,0,1-.82.46,3.49,3.49,0,0,1-1,.15,3.64,3.64,0,0,1-1.09-.15,3.31,3.31,0,0,1-.8-.36,1.64,1.64,0,0,1-.49-.44.72.72,0,0,1-.17-.38.33.33,0,0,1,.1-.24.26.26,0,0,1,.2-.12c.07,0,.15.06.23.17a2.84,2.84,0,0,0,.35.37,2.38,2.38,0,0,0,.6.37A2.53,2.53,0,0,0,126.64,41.75Z" style="fill: #fff"/>
          <path d="M151.37,32.94a3.29,3.29,0,0,1,1,.14,2.09,2.09,0,0,1,1.38,1.3,3.48,3.48,0,0,1,.19,1.24v4a3.51,3.51,0,0,1-.19,1.24,2.09,2.09,0,0,1-1.38,1.3,3.62,3.62,0,0,1-1,.14h-2.26a.34.34,0,0,1-.23-.08.29.29,0,0,1-.08-.19V33.2a.27.27,0,0,1,.08-.18.3.3,0,0,1,.23-.08Zm-1.93.61v8.12h1.93a2,2,0,0,0,1.43-.5,2.12,2.12,0,0,0,.51-1.57v-4a2.1,2.1,0,0,0-.51-1.57,2,2,0,0,0-1.43-.5Z" style="fill: #fff"/>
          <path d="M163.56,33.2a.21.21,0,0,1,.1-.2.43.43,0,0,1,.22-.06.4.4,0,0,1,.22.06.23.23,0,0,1,.09.2V42a.23.23,0,0,1-.09.21.34.34,0,0,1-.22.07.36.36,0,0,1-.22-.07.22.22,0,0,1-.1-.21Z" style="fill: #fff"/>
          <path d="M178.31,35.16a1.78,1.78,0,0,0-.6-1.21,2.06,2.06,0,0,0-1.34-.4,2,2,0,0,0-1.43.5,2.14,2.14,0,0,0-.5,1.57v4.05a2.19,2.19,0,0,0,.5,1.58,2.29,2.29,0,0,0,2.86,0,2.14,2.14,0,0,0,.51-1.58V38h-1.89a.2.2,0,0,1-.19-.1.3.3,0,0,1-.07-.19.31.31,0,0,1,.07-.2.2.2,0,0,1,.19-.1h2.26a.24.24,0,0,1,.2.09.31.31,0,0,1,.07.21v2a3.46,3.46,0,0,1-.2,1.24,2.09,2.09,0,0,1-.55.84,2.21,2.21,0,0,1-.82.46,3.51,3.51,0,0,1-2,0,2,2,0,0,1-1.35-1.3,3.26,3.26,0,0,1-.2-1.24V35.62a3.26,3.26,0,0,1,.2-1.24,2.14,2.14,0,0,1,.54-.83,2.19,2.19,0,0,1,.81-.47,3.68,3.68,0,0,1,2.08,0,2.33,2.33,0,0,1,.82.46,1.9,1.9,0,0,1,.52.68,2,2,0,0,1,.18.86.3.3,0,0,1-.09.25.36.36,0,0,1-.23.08.4.4,0,0,1-.22-.06A.3.3,0,0,1,178.31,35.16Z" style="fill: #fff"/>
          <path d="M188.41,33.2a.23.23,0,0,1,.1-.2.43.43,0,0,1,.22-.06A.44.44,0,0,1,189,33a.23.23,0,0,1,.09.2V42a.23.23,0,0,1-.09.21.37.37,0,0,1-.23.07.36.36,0,0,1-.22-.07.24.24,0,0,1-.1-.21Z" style="fill: #fff"/>
          <path d="M203.26,32.94a.23.23,0,0,1,.2.09.32.32,0,0,1,.06.2.43.43,0,0,1-.06.22.21.21,0,0,1-.2.1h-2.2V42a.22.22,0,0,1-.11.21.33.33,0,0,1-.21.07.37.37,0,0,1-.23-.07.23.23,0,0,1-.09-.21V33.55h-2.23a.23.23,0,0,1-.2-.1.38.38,0,0,1-.07-.21A.44.44,0,0,1,198,33a.25.25,0,0,1,.2-.09Z" style="fill: #fff"/>
          <path d="M211.32,42.28a.44.44,0,0,1-.24-.07A.21.21,0,0,1,211,42a.19.19,0,0,1,0-.08l2.73-8.83a.35.35,0,0,1,.36-.23.43.43,0,0,1,.22.06.26.26,0,0,1,.14.17l2.71,8.83s0,0,0,0v0a.23.23,0,0,1-.11.2.47.47,0,0,1-.26.08.23.23,0,0,1-.25-.19l-.63-2h-3.68l-.62,2A.26.26,0,0,1,211.32,42.28Zm4.4-2.81L214.07,34l-1.69,5.46Z" style="fill: #fff"/>
          <path d="M226.13,33.2a.21.21,0,0,1,.1-.2.43.43,0,0,1,.22-.06.4.4,0,0,1,.22.06.21.21,0,0,1,.1.2V42a.22.22,0,0,1-.1.21.34.34,0,0,1-.22.07.36.36,0,0,1-.22-.07.22.22,0,0,1-.1-.21Z" style="fill: #fff"/>
          <path d="M238.43,41.75a2.16,2.16,0,0,0,1.51-.48,1.85,1.85,0,0,0,.52-1.44,2.25,2.25,0,0,0-.18-1,1.9,1.9,0,0,0-.49-.62,2.74,2.74,0,0,0-.68-.41c-.26-.11-.52-.21-.79-.3s-.53-.2-.79-.31a2.77,2.77,0,0,1-.68-.42,2,2,0,0,1-.49-.65,2.71,2.71,0,0,1,.07-2.11,2,2,0,0,1,.63-.69,2.53,2.53,0,0,1,.85-.34,4.57,4.57,0,0,1,.88-.1,4.74,4.74,0,0,1,.75.06,3.88,3.88,0,0,1,.67.16,2.15,2.15,0,0,1,.48.24.36.36,0,0,1,.18.27.52.52,0,0,1-.08.24.25.25,0,0,1-.21.13.46.46,0,0,1-.21-.07,2.3,2.3,0,0,0-.35-.17,3.17,3.17,0,0,0-.52-.17,3.06,3.06,0,0,0-.73-.07,3.33,3.33,0,0,0-.7.07,1.6,1.6,0,0,0-.63.25,1.56,1.56,0,0,0-.45.5,1.6,1.6,0,0,0-.17.77,1.42,1.42,0,0,0,.32,1,2.4,2.4,0,0,0,.79.56,7.34,7.34,0,0,0,1,.39,4.15,4.15,0,0,1,1,.46,2.59,2.59,0,0,1,.79.82,2.73,2.73,0,0,1,.32,1.41,2.92,2.92,0,0,1-.2,1.17,2.26,2.26,0,0,1-.54.82,2.21,2.21,0,0,1-.82.46,3.86,3.86,0,0,1-2.13,0,3.14,3.14,0,0,1-.8-.36,1.64,1.64,0,0,1-.49-.44A.65.65,0,0,1,236,41a.36.36,0,0,1,.09-.24.27.27,0,0,1,.2-.12c.08,0,.16.06.24.17a3.5,3.5,0,0,0,.34.37,2.28,2.28,0,0,0,.61.37A2.5,2.5,0,0,0,238.43,41.75Z" style="fill: #fff"/>
        </g>
      </g>
    </g>
  </g>
</svg>
