<svg xmlns="http://www.w3.org/2000/svg" viewBox="0 0 484.83 114.83">
  <g id="Layer_2" data-name="Layer 2">
    <g id="Layer_1-2" data-name="Layer 1">
      <g>
        <rect x="1.42" y="1.43" width="141" height="112" style="fill: #fff"/>
        <rect x="142.42" y="1.43" width="341" height="112"/>
        <rect x="1.42" y="1.42" width="482" height="112" style="fill: none;stroke: #000;stroke-miterlimit: 10;stroke-width: 2.83464574813843px"/>
        <g>
          <path d="M46.14,52a5.78,5.78,0,0,1-.87,3.15,2.94,2.94,0,0,1-2.68,1.38,4.1,4.1,0,0,1-3-1,3.1,3.1,0,0,1-1-2.23,7.35,7.35,0,0,1,.12-1.39c.08-.42.15-.84.22-1.26A7.68,7.68,0,0,0,35.1,52a11.3,11.3,0,0,0-3.72,3.75v20a3.77,3.77,0,0,0,.47,2,2.82,2.82,0,0,0,1.48,1.15,9.16,9.16,0,0,0,2.24.52c.92.12,1.72.2,2.39.25v2.3H19.86v-2.3l1.65-.14A6.5,6.5,0,0,0,23,79.17a2.49,2.49,0,0,0,1.44-1.09,3.88,3.88,0,0,0,.47-2V54.86a4.81,4.81,0,0,0-.5-2.12A4.34,4.34,0,0,0,23,51.07a4.72,4.72,0,0,0-1.57-.6,13.9,13.9,0,0,0-2-.27V47.91l11.42-.77.49.49v4.84h.17a15.51,15.51,0,0,1,4.81-4.28,10.09,10.09,0,0,1,4.84-1.47,4.75,4.75,0,0,1,3.57,1.43A5.31,5.31,0,0,1,46.14,52Z"/>
          <path d="M83.91,64.69a18.36,18.36,0,0,1-4.87,13,15,15,0,0,1-11.31,5.26,18.24,18.24,0,0,1-5.56-.87A23.81,23.81,0,0,1,57,79.73l-2.58,4-2.16-.49c.12-1.72.2-3.78.25-6.2s.07-4.75.07-7V36a5.67,5.67,0,0,0-.54-2.37A3.79,3.79,0,0,0,50.7,32a5.53,5.53,0,0,0-2.21-.68c-1-.15-1.86-.25-2.49-.29V28.76L58.6,28l.49.53V51.14l.25.07a14.65,14.65,0,0,1,4.71-3.44,12.16,12.16,0,0,1,5-1.15,13.34,13.34,0,0,1,10.59,5Q83.92,56.64,83.91,64.69Zm-7.27.24a25.93,25.93,0,0,0-.56-5.26A15,15,0,0,0,74.34,55a9.62,9.62,0,0,0-3.1-3.27,8.18,8.18,0,0,0-4.59-1.26,9.05,9.05,0,0,0-4.27,1A11.73,11.73,0,0,0,59.09,54V74a8.65,8.65,0,0,0,.82,2,9.15,9.15,0,0,0,1.65,2.12,8.84,8.84,0,0,0,2.37,1.58,7.65,7.65,0,0,0,3.24.61q4.24,0,6.86-4.1T76.64,64.93Z"/>
          <path d="M125.38,81.89H115l-5.82-8.42q-3.11-4.48-6.45-8.73L99.89,67.4v8.15a4.15,4.15,0,0,0,.46,2.07,2.6,2.6,0,0,0,1.46,1.2,9.28,9.28,0,0,0,1.6.52,11.59,11.59,0,0,0,1.77.25v2.3H88.37v-2.3L90,79.43a7.77,7.77,0,0,0,1.45-.26,2.55,2.55,0,0,0,1.45-1.1,3.76,3.76,0,0,0,.49-2V36.11a5.53,5.53,0,0,0-.54-2.42A4.24,4.24,0,0,0,91.47,32a4.73,4.73,0,0,0-2.28-.73c-1-.11-1.86-.2-2.49-.24V28.76L99.41,28l.48.53V64.83q2.72-2.71,5.87-5.83t5.32-5.55a7.67,7.67,0,0,0,.6-.82,1.57,1.57,0,0,0,.34-.82c0-.63-.51-1.09-1.52-1.39a16.66,16.66,0,0,0-2.9-.63V47.56h15.1v2.16a23.57,23.57,0,0,0-5.17,2.17,22.49,22.49,0,0,0-3.43,2.35c-.56.47-1.35,1.22-2.37,2.26s-2.45,2.41-4.29,4.1q2.85,3.52,6.43,8.43t5.2,7.11a9.09,9.09,0,0,0,2.76,2.68,9.24,9.24,0,0,0,3.55.77Z"/>
        </g>
        <g>
          <path d="M234.11,81.3H211.7V78.76c.8,0,1.85-.1,3.12-.25a7.92,7.92,0,0,0,2.63-.6,4.72,4.72,0,0,0,1.63-1.56,4.31,4.31,0,0,0,.52-2.2V37.26h-.54l-17.3,43.22H200L183.49,36.37H183V66.65a30.16,30.16,0,0,0,.56,6.68,6.15,6.15,0,0,0,1.7,3.29,8.11,8.11,0,0,0,3.25,1.43,19.25,19.25,0,0,0,3.22.71V81.3H171.26V78.76a25.86,25.86,0,0,0,3.38-.53,6.53,6.53,0,0,0,2.73-1.18A5.22,5.22,0,0,0,179.09,74a35.6,35.6,0,0,0,.47-6.93v-26A10.59,10.59,0,0,0,179,37.4a5.73,5.73,0,0,0-1.54-2.32,6.93,6.93,0,0,0-2.72-1.43,13.75,13.75,0,0,0-3.18-.54V30.57h17.3l14.53,38.08L215.82,36.8A31.46,31.46,0,0,0,217,33.13a18.23,18.23,0,0,0,.52-2.56H234v2.54a19.43,19.43,0,0,0-2.56.32,16.35,16.35,0,0,0-2.27.54,2.6,2.6,0,0,0-1.64,1.43,5.4,5.4,0,0,0-.43,2.18V74.15a4.61,4.61,0,0,0,.43,2.11,3.62,3.62,0,0,0,1.64,1.5,8.44,8.44,0,0,0,2.29.67,18.75,18.75,0,0,0,2.61.33Z" style="fill: #fff"/>
          <path d="M275.87,63.32a23.17,23.17,0,0,1-1.19,7.31,17.22,17.22,0,0,1-3.36,6.1A15.7,15.7,0,0,1,265.59,81a18.35,18.35,0,0,1-7.3,1.4,16.57,16.57,0,0,1-6.4-1.27,16.26,16.26,0,0,1-5.41-3.7,17.77,17.77,0,0,1-3.7-5.85,20.68,20.68,0,0,1-1.38-7.74q0-8.25,4.82-13.51A17.6,17.6,0,0,1,271.05,50Q275.87,55,275.87,63.32Zm-7.4.07a31.79,31.79,0,0,0-.54-5.66,18.14,18.14,0,0,0-1.61-5.06,9.93,9.93,0,0,0-3-3.56,7.61,7.61,0,0,0-4.55-1.34,8,8,0,0,0-4.71,1.36,9.93,9.93,0,0,0-3.17,3.72,16.49,16.49,0,0,0-1.61,5,32.65,32.65,0,0,0-.47,5.39,34,34,0,0,0,.56,6.35,18.31,18.31,0,0,0,1.77,5.2,10,10,0,0,0,3.06,3.59,7.71,7.71,0,0,0,4.57,1.31c3,0,5.35-1.44,7.09-4.33S268.47,68.47,268.47,63.39Z" style="fill: #fff"/>
          <path d="M321,80.66l-12.34.79-.53-.5V77.66l-.29-.08a14.54,14.54,0,0,1-4.59,3.4,12.76,12.76,0,0,1-5.62,1.32,13.2,13.2,0,0,1-5.8-1.34A14.58,14.58,0,0,1,287,77.19a18.46,18.46,0,0,1-3.34-5.93,22.73,22.73,0,0,1-1.23-7.65,20.06,20.06,0,0,1,1.32-7.26,19.11,19.11,0,0,1,3.64-6,16.05,16.05,0,0,1,5.34-3.82,15.34,15.34,0,0,1,6.44-1.43,19.29,19.29,0,0,1,4.84.62,17.8,17.8,0,0,1,4.09,1.59V35a7.11,7.11,0,0,0-.51-2.74,4.08,4.08,0,0,0-1.39-1.88,7,7,0,0,0-2.7-1q-1.69-.3-3.66-.45V26.75L314.26,26l.54.54V74a4.36,4.36,0,0,0,.48,2.13,4.14,4.14,0,0,0,1.41,1.48,4.33,4.33,0,0,0,2,.54c.85.07,1.64.12,2.36.14Zm-12.94-6.19V53.85a9.8,9.8,0,0,0-.93-2,9,9,0,0,0-1.61-2,9.3,9.3,0,0,0-2.42-1.49,8.35,8.35,0,0,0-3.25-.58,7.35,7.35,0,0,0-3.94,1.1,10.45,10.45,0,0,0-3.2,3.19,16.32,16.32,0,0,0-2.08,5.09,28,28,0,0,0-.77,6.85,24.07,24.07,0,0,0,.57,5.45,14.35,14.35,0,0,0,1.93,4.56,9.88,9.88,0,0,0,3.19,3.21,8.56,8.56,0,0,0,4.62,1.22,8.39,8.39,0,0,0,4.73-1.25A15.31,15.31,0,0,0,308.08,74.47Z" style="fill: #fff"/>
          <path d="M363.7,80.66l-11.51.79-.54-.5V76.48h-.21c-.57.59-1.21,1.23-1.93,1.91a13.37,13.37,0,0,1-2.46,1.84,16.36,16.36,0,0,1-3.11,1.47,14.11,14.11,0,0,1-4.24.5,8.57,8.57,0,0,1-7.12-3.06q-2.44-3-2.45-8.87V53.41a4.48,4.48,0,0,0-.48-2.16,4.28,4.28,0,0,0-3-2.14,15.88,15.88,0,0,0-2.05-.27V46.48l11.77-.86.53.5V70.61a8.47,8.47,0,0,0,1.72,5.76,5.29,5.29,0,0,0,4.11,1.93,9.34,9.34,0,0,0,3.5-.61,9.82,9.82,0,0,0,2.58-1.43,12.31,12.31,0,0,0,1.7-1.58,9.28,9.28,0,0,0,1.12-1.56v-20a4.22,4.22,0,0,0-.5-2.09,4.76,4.76,0,0,0-1.39-1.55,4,4,0,0,0-1.92-.52c-.84-.06-1.79-.11-2.84-.16V46.48l12.83-.86.54.5v28a4.07,4.07,0,0,0,.5,2.07,4.52,4.52,0,0,0,1.4,1.46,4,4,0,0,0,1.54.52,18.51,18.51,0,0,0,2,.16Z" style="fill: #fff"/>
          <path d="M386,81.3h-17.2V78.94c.55,0,1.13-.1,1.75-.16a8.33,8.33,0,0,0,1.54-.27,2.62,2.62,0,0,0,1.5-1.12,3.89,3.89,0,0,0,.5-2.1V34.44a5.4,5.4,0,0,0-.55-2.42,4.65,4.65,0,0,0-1.45-1.77,7.28,7.28,0,0,0-2.36-.78A19.86,19.86,0,0,0,367,29V26.75L380.25,26l.5.54V74.87a4,4,0,0,0,.47,2,3,3,0,0,0,1.5,1.24,8.13,8.13,0,0,0,1.55.53,10.54,10.54,0,0,0,1.74.25Z" style="fill: #fff"/>
          <path d="M423.22,73a18.08,18.08,0,0,1-5.93,6.72,14.94,14.94,0,0,1-8.55,2.5,17.38,17.38,0,0,1-7.45-1.5A14.67,14.67,0,0,1,396,76.66a17.24,17.24,0,0,1-3.1-6,25.73,25.73,0,0,1-1-7.26A21.32,21.32,0,0,1,393,56.65a18.79,18.79,0,0,1,3.2-5.95,15.34,15.34,0,0,1,5.05-4.09A14.59,14.59,0,0,1,408,45.05a16.29,16.29,0,0,1,6.61,1.22,11.76,11.76,0,0,1,4.47,3.32,13.34,13.34,0,0,1,2.45,4.72,20.58,20.58,0,0,1,.8,5.9v2.36H399a27.85,27.85,0,0,0,.66,6.31,15.29,15.29,0,0,0,2.09,5,10,10,0,0,0,3.65,3.28,11.25,11.25,0,0,0,5.36,1.2,9.86,9.86,0,0,0,5.49-1.5,14.65,14.65,0,0,0,4.45-5.37Zm-7.9-13.44a28.68,28.68,0,0,0-.34-4.28,12.87,12.87,0,0,0-1.09-3.81,7.27,7.27,0,0,0-2.25-2.68,6.12,6.12,0,0,0-3.68-1,7.66,7.66,0,0,0-6.24,3.12Q399.23,54,399,59.57Z" style="fill: #fff"/>
          <path d="M452,64a9.07,9.07,0,0,1,2.25,3,9.72,9.72,0,0,1,.78,4.11,10,10,0,0,1-3.66,8,15.66,15.66,0,0,1-15.16,2,15.29,15.29,0,0,1-3.7-2l-.71,2.32h-2.68l-.36-12.26h2.46a14.11,14.11,0,0,0,1.22,3.26,15.48,15.48,0,0,0,2.25,3.37,12.38,12.38,0,0,0,3.35,2.66,8.82,8.82,0,0,0,4.37,1.08,8,8,0,0,0,5.3-1.57,5.54,5.54,0,0,0,1.85-4.48,5.3,5.3,0,0,0-.59-2.59A5.77,5.77,0,0,0,447.28,69a13.65,13.65,0,0,0-2.89-1.48c-1.15-.45-2.42-.88-3.83-1.31a33.56,33.56,0,0,1-3.74-1.38,15,15,0,0,1-3.52-2,10.12,10.12,0,0,1-2.57-3.08,8.72,8.72,0,0,1-1-4.29,9.64,9.64,0,0,1,3.21-7.32,12.11,12.11,0,0,1,8.62-3,17.54,17.54,0,0,1,4.24.54,14.44,14.44,0,0,1,3.52,1.29l.82-1.86h2.58l.53,11.33h-2.47a11.33,11.33,0,0,0-3.23-6.19,8.44,8.44,0,0,0-6.06-2.39,6.7,6.7,0,0,0-4.61,1.48,4.57,4.57,0,0,0-1.68,3.56,5.79,5.79,0,0,0,.55,2.68,5,5,0,0,0,1.66,1.82,14.11,14.11,0,0,0,2.7,1.35c1.09.41,2.43.88,4,1.41a34.61,34.61,0,0,1,4.45,1.75A14.88,14.88,0,0,1,452,64Z" style="fill: #fff"/>
        </g>
      </g>
    </g>
  </g>
</svg>
