<svg xmlns="http://www.w3.org/2000/svg" viewBox="0 0 375.84 46.08">
  <g id="Layer_2" data-name="Layer 2">
    <g id="logo">
      <g>
        <path d="M44.08,5.46c-.64,1.62-1.14,3.15-1.84,4.59a4.35,4.35,0,0,0,0,3.81c3.83,9.82,7.57,19.68,11.33,29.53a3.32,3.32,0,0,1,.25,1.51,1.18,1.18,0,0,1-1.2,1A1.29,1.29,0,0,1,51.08,45c-.59-1.48-1.15-3-1.72-4.46L40.12,16.49,39.93,16c-.11.25-.2.42-.27.59Q36.41,24.8,33.13,33a1.16,1.16,0,0,0,0,.95q2,4.92,3.92,9.87a1.49,1.49,0,0,1-.53,1.93,1.59,1.59,0,0,1-1.86-.29,3,3,0,0,1-.43-.78q-2-5-4-10.08L18.86,6.09l-.26-.62c-.54,1.36-1,2.61-1.53,3.87A8,8,0,0,0,16.13,12a7.84,7.84,0,0,0,.92,2.62l11.11,29,.06.16c.36,1,.09,1.78-.69,2.08a1.56,1.56,0,0,1-2.05-1L18.28,26q-1.82-4.77-3.66-9.54a4.36,4.36,0,0,0-.2-.44c-.61,1.53-1.19,3-1.76,4.43Q7.82,32.58,3,44.71A1.57,1.57,0,0,1,1.7,45.89a1.41,1.41,0,0,1-1.57-2C.68,42.42,1.28,41,1.87,39.5Q9.46,20.43,17.05,1.37a2.67,2.67,0,0,1,.61-1c.89-.74,1.94-.4,2.41.78.85,2.1,1.68,4.21,2.52,6.32l8.46,21.3.3.66c.14-.33.24-.56.33-.79Q37.11,15,42.54,1.35a2.5,2.5,0,0,1,.66-1,1.44,1.44,0,0,1,2.31.74c.56,1.35,1.09,2.72,1.63,4.07q7.65,19.23,15.3,38.45a2.54,2.54,0,0,1,.2,1.18,1.26,1.26,0,0,1-1.17,1.11,1.49,1.49,0,0,1-1.7-1c-.68-1.68-1.34-3.37-2-5.06Q51,22.9,44.28,6Z"/>
        <g>
          <path d="M75.73,4.29h4l7.6,17.58h.06L95,4.29h3.86V26.72H96.22V7.9h-.06l-8,18.82H86.5l-8-18.82h-.06V26.72H75.73Z"/>
          <path d="M105.25,4.29h14.1V6.76H107.91v7h10.68v2.47H107.91v8h12v2.47H105.25Z"/>
          <path d="M124.42,4.29H133a11.73,11.73,0,0,1,2.35.26,11,11,0,0,1,2.45.8,11.6,11.6,0,0,1,2.35,1.44,10.4,10.4,0,0,1,2,2.14,10.86,10.86,0,0,1,1.36,2.89,12.62,12.62,0,0,1,.5,3.69,12.72,12.72,0,0,1-.5,3.69,10.94,10.94,0,0,1-1.36,2.88,10.15,10.15,0,0,1-2,2.14,11.61,11.61,0,0,1-7.15,2.5h-8.61Zm2.66,20h5.06a12,12,0,0,0,3.58-.51,7.73,7.73,0,0,0,2.86-1.57,7.44,7.44,0,0,0,1.9-2.7,10.24,10.24,0,0,0,.69-4,10.17,10.17,0,0,0-.69-4,7.48,7.48,0,0,0-1.9-2.71,7.73,7.73,0,0,0-2.86-1.57,12,12,0,0,0-3.58-.51h-5.06Z"/>
          <path d="M149.09,4.29h2.66V26.72h-2.66Z"/>
          <path d="M173.83,8.92a6.43,6.43,0,0,0-2.5-2,7.44,7.44,0,0,0-3.1-.68,7.85,7.85,0,0,0-3.44.76A8.56,8.56,0,0,0,162.08,9a9.23,9.23,0,0,0-1.77,3,9.87,9.87,0,0,0-.64,3.54,10.11,10.11,0,0,0,.64,3.65,9.06,9.06,0,0,0,1.75,2.95,8.22,8.22,0,0,0,2.7,2A8.67,8.67,0,0,0,171.9,24a8.23,8.23,0,0,0,2.82-2.33l2,1.68a9.21,9.21,0,0,1-3.65,3,11.86,11.86,0,0,1-4.83.95,11.4,11.4,0,0,1-4.5-.89A11,11,0,0,1,160.1,24a11.48,11.48,0,0,1-2.41-3.72,12.51,12.51,0,0,1-.87-4.72,12.65,12.65,0,0,1,.84-4.63A11.39,11.39,0,0,1,160,7.14a11.23,11.23,0,0,1,3.61-2.5,11.38,11.38,0,0,1,4.6-.92,11.88,11.88,0,0,1,4.38.83,7.94,7.94,0,0,1,3.53,2.69Z"/>
          <path d="M188.5,4.29H191l9.54,22.43h-3.11l-2.28-5.51H183.94l-2.32,5.51h-3Zm1.2,3.42h-.06l-4.66,11h9.16Z"/>
          <path d="M204.31,4.29H207v20h10.26v2.47H204.31Z"/>
          <path d="M230.53,4.29h2.67V13.8h12V4.29h2.66V26.72h-2.66V16.27h-12V26.72h-2.67Z"/>
          <path d="M264.62,27.29a12.23,12.23,0,0,1-4.71-.89,11.33,11.33,0,0,1-3.7-2.45,11,11,0,0,1-2.44-3.74,12.51,12.51,0,0,1-.87-4.7,12.57,12.57,0,0,1,.87-4.71,11.07,11.07,0,0,1,2.44-3.74,11.33,11.33,0,0,1,3.7-2.45,12.88,12.88,0,0,1,9.41,0A11.37,11.37,0,0,1,273,7.06a11.22,11.22,0,0,1,2.44,3.74,12.57,12.57,0,0,1,.87,4.71,12.51,12.51,0,0,1-.87,4.7A11.12,11.12,0,0,1,273,24a11.37,11.37,0,0,1-3.71,2.45A12.15,12.15,0,0,1,264.62,27.29Zm0-2.47a8.6,8.6,0,0,0,3.59-.73,8.47,8.47,0,0,0,2.81-2,9,9,0,0,0,1.82-3,10.43,10.43,0,0,0,0-7.25,9,9,0,0,0-1.82-3,8.47,8.47,0,0,0-2.81-2,9.22,9.22,0,0,0-7.19,0,8.53,8.53,0,0,0-2.8,2,9,9,0,0,0-1.82,3,10.43,10.43,0,0,0,0,7.25,9,9,0,0,0,1.82,3,8.53,8.53,0,0,0,2.8,2A8.68,8.68,0,0,0,264.62,24.82Z"/>
          <path d="M281.41,4.29h5.73a28.83,28.83,0,0,1,3.22.19,8.52,8.52,0,0,1,2.86.83,5.16,5.16,0,0,1,2.06,1.85,6,6,0,0,1,.79,3.31,5.45,5.45,0,0,1-1.48,4,7.14,7.14,0,0,1-4.12,1.93l6.36,10.33h-3.26l-6.08-10.07h-3.42V26.72h-2.66Zm2.66,9.89h2.37c.74,0,1.51,0,2.3-.07a8,8,0,0,0,2.19-.41,3.82,3.82,0,0,0,1.64-1.09,3.13,3.13,0,0,0,.65-2.14,3.45,3.45,0,0,0-.47-1.93,3.31,3.31,0,0,0-1.25-1.13,5.34,5.34,0,0,0-1.75-.52,15.67,15.67,0,0,0-1.94-.13h-3.74Z"/>
          <path d="M301.55,4.29h2.66V26.72h-2.66Z"/>
          <path d="M308.71,24.34l13-17.58H308.9V4.29h16V6.57l-13,17.68h13.12v2.47H308.71Z"/>
          <path d="M340,27.29a12.23,12.23,0,0,1-4.71-.89,11.33,11.33,0,0,1-3.7-2.45,11,11,0,0,1-2.44-3.74,12.51,12.51,0,0,1-.87-4.7,12.57,12.57,0,0,1,.87-4.71,11.07,11.07,0,0,1,2.44-3.74,11.33,11.33,0,0,1,3.7-2.45,12.88,12.88,0,0,1,9.41,0,11.37,11.37,0,0,1,3.71,2.45,11.22,11.22,0,0,1,2.44,3.74,12.57,12.57,0,0,1,.87,4.71,12.51,12.51,0,0,1-.87,4.7A11.12,11.12,0,0,1,348.39,24a11.37,11.37,0,0,1-3.71,2.45A12.15,12.15,0,0,1,340,27.29Zm0-2.47a8.6,8.6,0,0,0,3.59-.73,8.47,8.47,0,0,0,2.81-2,9,9,0,0,0,1.82-3,10.43,10.43,0,0,0,0-7.25,9,9,0,0,0-1.82-3,8.47,8.47,0,0,0-2.81-2,9.22,9.22,0,0,0-7.19,0,8.43,8.43,0,0,0-2.8,2,9,9,0,0,0-1.82,3,9.91,9.91,0,0,0-.65,3.63,9.9,9.9,0,0,0,.65,3.62,9,9,0,0,0,1.82,3,8.43,8.43,0,0,0,2.8,2A8.68,8.68,0,0,0,340,24.82Z"/>
          <path d="M356.77,4.29h3.35l13,18.63h.07V4.29h2.66V26.72h-3.36l-13-18.63h-.06V26.72h-2.66Z"/>
        </g>
        <g>
          <path d="M128.6,46a.31.31,0,0,1-.21-.07.22.22,0,0,1-.1-.21V36.93a.22.22,0,0,1,.1-.21.43.43,0,0,1,.22-.06.4.4,0,0,1,.22.06.22.22,0,0,1,.1.21v8.46h3.77a.2.2,0,0,1,.19.1.36.36,0,0,1,.05.21.41.41,0,0,1-.05.21.21.21,0,0,1-.19.09Z"/>
          <path d="M141.45,46a.45.45,0,0,1-.25-.07.22.22,0,0,1-.11-.21s0-.06,0-.07l2.74-8.84a.34.34,0,0,1,.36-.23.42.42,0,0,1,.21.06.26.26,0,0,1,.14.17l2.71,8.84v.07a.23.23,0,0,1-.12.2.38.38,0,0,1-.25.08.24.24,0,0,1-.26-.19l-.63-2h-3.68l-.61,2A.26.26,0,0,1,141.45,46Zm4.4-2.81-1.65-5.46-1.69,5.46Z"/>
          <path d="M160.69,36.93a.22.22,0,0,1,.1-.21.38.38,0,0,1,.22-.06.43.43,0,0,1,.22.06.24.24,0,0,1,.1.21V43.4a3.5,3.5,0,0,1-.2,1.24,2.12,2.12,0,0,1-.55.83,2.08,2.08,0,0,1-.82.46,3.58,3.58,0,0,1-2,0,2.08,2.08,0,0,1-.82-.46,2.22,2.22,0,0,1-.54-.83,3.5,3.5,0,0,1-.2-1.24V36.93a.22.22,0,0,1,.1-.21.43.43,0,0,1,.22-.06.38.38,0,0,1,.22.06.22.22,0,0,1,.1.21V43.4A2.12,2.12,0,0,0,157.3,45a2.31,2.31,0,0,0,2.87,0,2.08,2.08,0,0,0,.52-1.57Z"/>
          <path d="M173.55,36.66a3.62,3.62,0,0,1,1,.14,2.09,2.09,0,0,1,1.38,1.3,3.51,3.51,0,0,1,.19,1.24v4a3.48,3.48,0,0,1-.19,1.24,2.09,2.09,0,0,1-1.38,1.3,3.29,3.29,0,0,1-1,.14h-2.26a.26.26,0,0,1-.22-.08.24.24,0,0,1-.09-.18V36.93a.26.26,0,0,1,.09-.19.29.29,0,0,1,.22-.08Zm-1.93.61v8.12h1.93a2,2,0,0,0,1.43-.5,2.06,2.06,0,0,0,.52-1.57v-4a2.08,2.08,0,0,0-.52-1.57,2,2,0,0,0-1.43-.5Z"/>
          <path d="M188.22,46.08a3.31,3.31,0,0,1-1-.15,2,2,0,0,1-.81-.46,2.22,2.22,0,0,1-.54-.83,3.29,3.29,0,0,1-.2-1.24V39.34a3.29,3.29,0,0,1,.2-1.24,2.14,2.14,0,0,1,.54-.83,2.19,2.19,0,0,1,.81-.47,3.75,3.75,0,0,1,2,0,2.23,2.23,0,0,1,.82.47,2,2,0,0,1,.55.83,3.5,3.5,0,0,1,.2,1.24V43.4a3.5,3.5,0,0,1-.2,1.24,2.12,2.12,0,0,1-.55.83,2.08,2.08,0,0,1-.82.46A3.33,3.33,0,0,1,188.22,46.08Zm1.94-6.74a2.12,2.12,0,0,0-.51-1.57,2.29,2.29,0,0,0-2.86,0,2.12,2.12,0,0,0-.5,1.57V43.4a2.12,2.12,0,0,0,.5,1.57,2.29,2.29,0,0,0,2.86,0,2.12,2.12,0,0,0,.51-1.57Z"/>
          <path d="M202.37,45.47a2.16,2.16,0,0,0,1.51-.48,1.85,1.85,0,0,0,.52-1.44,2.21,2.21,0,0,0-.18-.95,1.91,1.91,0,0,0-.49-.63,2.74,2.74,0,0,0-.68-.41c-.26-.11-.52-.21-.79-.3s-.53-.2-.78-.31a2.65,2.65,0,0,1-.69-.42,1.83,1.83,0,0,1-.48-.64,2.2,2.2,0,0,1-.19-1,2.23,2.23,0,0,1,.25-1.13,1.92,1.92,0,0,1,.63-.69,2.36,2.36,0,0,1,.85-.35,4.57,4.57,0,0,1,.88-.1,4.65,4.65,0,0,1,.75.06,3.88,3.88,0,0,1,.67.16,2.15,2.15,0,0,1,.48.24.36.36,0,0,1,.18.27.43.43,0,0,1-.08.24.25.25,0,0,1-.21.13.46.46,0,0,1-.21-.07L204,37.5a3.45,3.45,0,0,0-.51-.16,2.67,2.67,0,0,0-.73-.08,3.35,3.35,0,0,0-.71.07,1.77,1.77,0,0,0-.63.25,1.56,1.56,0,0,0-.45.5,1.61,1.61,0,0,0-.17.78,1.41,1.41,0,0,0,.32,1,2.4,2.4,0,0,0,.79.56,7.34,7.34,0,0,0,1,.39,4,4,0,0,1,1,.46,2.48,2.48,0,0,1,.79.82,2.64,2.64,0,0,1,.32,1.42,3.19,3.19,0,0,1-.19,1.17,2.47,2.47,0,0,1-.55.81,2,2,0,0,1-.82.46,3.49,3.49,0,0,1-1,.15,3.59,3.59,0,0,1-1.09-.15,3,3,0,0,1-.8-.35,1.66,1.66,0,0,1-.49-.45.72.72,0,0,1-.17-.38.34.34,0,0,1,.1-.24.26.26,0,0,1,.2-.12c.07,0,.15.06.23.17a2.84,2.84,0,0,0,.35.37,2.13,2.13,0,0,0,.6.37A2.5,2.5,0,0,0,202.37,45.47Z"/>
          <path d="M227.1,36.66a3.68,3.68,0,0,1,1,.14,2.23,2.23,0,0,1,.82.47,2,2,0,0,1,.55.83,3.29,3.29,0,0,1,.2,1.24v4a3.26,3.26,0,0,1-.2,1.24,2,2,0,0,1-.55.83,2.23,2.23,0,0,1-.82.47,3.33,3.33,0,0,1-1,.14h-2.26a.3.3,0,0,1-.23-.08.27.27,0,0,1-.08-.18V36.93a.29.29,0,0,1,.08-.19.34.34,0,0,1,.23-.08Zm-1.93.61v8.12h1.93a2,2,0,0,0,1.43-.5,2.1,2.1,0,0,0,.51-1.57v-4a2.12,2.12,0,0,0-.51-1.57,2,2,0,0,0-1.43-.5Z"/>
          <path d="M239.28,36.93a.22.22,0,0,1,.11-.21.39.39,0,0,1,.21-.06.44.44,0,0,1,.23.06.23.23,0,0,1,.09.21v8.79a.23.23,0,0,1-.09.21.37.37,0,0,1-.23.07.33.33,0,0,1-.21-.07.22.22,0,0,1-.11-.21Z"/>
          <path d="M254,38.88a1.8,1.8,0,0,0-.6-1.21,2.12,2.12,0,0,0-1.34-.4,2,2,0,0,0-1.43.5,2.12,2.12,0,0,0-.51,1.57V43.4a2.12,2.12,0,0,0,.51,1.57,2.29,2.29,0,0,0,2.86,0A2.12,2.12,0,0,0,254,43.4V41.68h-1.89a.21.21,0,0,1-.19-.09.32.32,0,0,1-.07-.2.31.31,0,0,1,.07-.2.21.21,0,0,1,.19-.1h2.26a.25.25,0,0,1,.2.09.38.38,0,0,1,.07.21v2a3.5,3.5,0,0,1-.2,1.24,2.23,2.23,0,0,1-.55.83,2.08,2.08,0,0,1-.82.46,3.38,3.38,0,0,1-1,.15,3.31,3.31,0,0,1-1-.15,2,2,0,0,1-.81-.46,2.36,2.36,0,0,1-.55-.83,3.51,3.51,0,0,1-.19-1.24V39.34a3.51,3.51,0,0,1,.19-1.24,2.27,2.27,0,0,1,.55-.83,2.19,2.19,0,0,1,.81-.47,3.55,3.55,0,0,1,1-.14,3.31,3.31,0,0,1,1.08.16,2.5,2.5,0,0,1,.82.46,1.9,1.9,0,0,1,.52.68,2.07,2.07,0,0,1,.18.86.3.3,0,0,1-.09.25.31.31,0,0,1-.23.08.38.38,0,0,1-.22-.06A.28.28,0,0,1,254,38.88Z"/>
          <path d="M264.14,36.93a.22.22,0,0,1,.1-.21.43.43,0,0,1,.22-.06.4.4,0,0,1,.22.06.22.22,0,0,1,.1.21v8.79a.22.22,0,0,1-.1.21.34.34,0,0,1-.22.07.36.36,0,0,1-.22-.07.22.22,0,0,1-.1-.21Z"/>
          <path d="M279,36.66a.23.23,0,0,1,.21.09.34.34,0,0,1,.06.2.43.43,0,0,1-.06.22.22.22,0,0,1-.21.1h-2.19v8.45a.22.22,0,0,1-.11.21.35.35,0,0,1-.21.07.37.37,0,0,1-.23-.07.23.23,0,0,1-.09-.21V37.27h-2.23a.25.25,0,0,1-.2-.09.37.37,0,0,1,0-.43.25.25,0,0,1,.2-.09Z"/>
          <path d="M287.05,46a.44.44,0,0,1-.24-.07.21.21,0,0,1-.12-.21.12.12,0,0,1,0-.07l2.73-8.84a.34.34,0,0,1,.36-.23.43.43,0,0,1,.22.06.3.3,0,0,1,.14.17l2.71,8.84s0,0,0,0v0a.24.24,0,0,1-.11.2.42.42,0,0,1-.26.08.23.23,0,0,1-.25-.19l-.63-2H288l-.62,2A.26.26,0,0,1,287.05,46Zm4.4-2.81-1.65-5.46-1.69,5.46Z"/>
          <path d="M301.86,36.93a.22.22,0,0,1,.1-.21.43.43,0,0,1,.22-.06.4.4,0,0,1,.22.06.22.22,0,0,1,.1.21v8.79a.22.22,0,0,1-.1.21.34.34,0,0,1-.22.07.36.36,0,0,1-.22-.07.22.22,0,0,1-.1-.21Z"/>
          <path d="M314.16,45.47a2.17,2.17,0,0,0,1.51-.48,1.85,1.85,0,0,0,.52-1.44,2.21,2.21,0,0,0-.18-.95,2.05,2.05,0,0,0-.49-.63,2.74,2.74,0,0,0-.68-.41c-.26-.11-.52-.21-.79-.3s-.53-.2-.79-.31a2.77,2.77,0,0,1-.68-.42,2,2,0,0,1-.49-.64,2.35,2.35,0,0,1-.18-1,2.23,2.23,0,0,1,.25-1.13,1.76,1.76,0,0,1,.63-.69,2.38,2.38,0,0,1,.84-.35,4.67,4.67,0,0,1,.89-.1,4.74,4.74,0,0,1,.75.06,3.55,3.55,0,0,1,.66.16,1.79,1.79,0,0,1,.48.24c.13.09.19.18.19.27a.52.52,0,0,1-.08.24.25.25,0,0,1-.21.13.46.46,0,0,1-.22-.07,2.66,2.66,0,0,0-.34-.17,3.25,3.25,0,0,0-.52-.16,2.63,2.63,0,0,0-.73-.08,3.42,3.42,0,0,0-.71.07,1.8,1.8,0,0,0-.62.25,1.36,1.36,0,0,0-.45.5,1.5,1.5,0,0,0-.17.78,1.36,1.36,0,0,0,.32,1,2.3,2.3,0,0,0,.79.56,6.9,6.9,0,0,0,1,.39,4.15,4.15,0,0,1,1,.46,2.59,2.59,0,0,1,.79.82,2.74,2.74,0,0,1,.32,1.42,3.18,3.18,0,0,1-.2,1.17,2.3,2.3,0,0,1-.54.81,2,2,0,0,1-.83.46,3.44,3.44,0,0,1-1,.15,3.64,3.64,0,0,1-1.09-.15,2.89,2.89,0,0,1-.79-.35,1.71,1.71,0,0,1-.5-.45.69.69,0,0,1-.16-.38.38.38,0,0,1,.09-.24.27.27,0,0,1,.2-.12c.08,0,.16.06.24.17a2.67,2.67,0,0,0,.34.37,2.13,2.13,0,0,0,.6.37A2.59,2.59,0,0,0,314.16,45.47Z"/>
        </g>
      </g>
    </g>
  </g>
</svg>
