<svg xmlns="http://www.w3.org/2000/svg" viewBox="0 0 341.83 190.2">
  <g id="Layer_2" data-name="Layer 2">
    <g id="logo">
      <g>
        <path d="M204.9,14.37c-1.67,4.24-3,8.27-4.83,12.06-1.68,3.46-1.46,6.45-.07,10,10.07,25.83,19.92,51.75,29.8,77.65a8.7,8.7,0,0,1,.65,4,3.1,3.1,0,0,1-3.15,2.61c-2.12.11-3.29-.5-4-2.31-1.54-3.89-3-7.81-4.52-11.72l-24.3-63.29c-.12-.32-.25-.63-.5-1.23-.29.65-.51,1.09-.69,1.55Q184.7,65.21,176.1,86.73a3.11,3.11,0,0,0,0,2.5q5.2,13,10.32,26c.83,2.1.26,4.08-1.41,5.07a4.19,4.19,0,0,1-4.89-.76,7.57,7.57,0,0,1-1.13-2Q173.68,104.21,168.41,91,153.5,53.48,138.58,16l-.68-1.63c-1.42,3.57-2.72,6.87-4,10.17-.9,2.29-2.46,4.59-2.47,6.88s1.54,4.61,2.42,6.9l29.22,76.29.15.42c1,2.55.25,4.68-1.82,5.47-2.23.84-4.44-.28-5.39-2.77q-9.47-24.69-18.91-49.4l-9.63-25.08c-.12-.31-.27-.61-.53-1.16l-4.64,11.64q-12.72,31.91-25.43,63.82c-.63,1.58-1.48,2.89-3.39,3.09-3.27.33-5.29-2.17-4.13-5.26,1.47-3.87,3-7.69,4.58-11.54Q113.86,53.74,133.84,3.61A6.48,6.48,0,0,1,135.44,1c2.33-2,5.09-1,6.33,2,2.24,5.53,4.42,11.08,6.62,16.62l22.26,56c.19.48.42,1,.77,1.74.36-.87.63-1.47.87-2.08q14.28-35.91,28.57-71.79A6.54,6.54,0,0,1,202.59.9c2.21-1.75,4.91-.86,6.08,2,1.47,3.54,2.86,7.13,4.28,10.7q20.12,50.54,40.22,101.08a6.73,6.73,0,0,1,.53,3.11,3.31,3.31,0,0,1-3.07,2.92,3.93,3.93,0,0,1-4.47-2.62c-1.79-4.43-3.53-8.88-5.3-13.32L205.43,15.64C205.3,15.32,205.16,15,204.9,14.37Z" style="fill: #fff"/>
        <g>
          <path d="M0,142.6H4.51l8.66,20h.07l8.73-20h4.41v25.55h-3V146.72h-.07l-9.16,21.43H12.27L3.1,146.72H3v21.43H0Z" style="fill: #fff"/>
          <path d="M33.63,142.6h16v2.82h-13v8H48.82v2.81H36.66v9.09H50.33v2.82H33.63Z" style="fill: #fff"/>
          <path d="M55.46,142.6h9.81a13.52,13.52,0,0,1,2.67.29,13.1,13.1,0,0,1,2.8.92,13.43,13.43,0,0,1,2.67,1.64,11.18,11.18,0,0,1,2.25,2.44,12,12,0,0,1,1.55,3.28,15.53,15.53,0,0,1,0,8.41,12,12,0,0,1-1.55,3.28,11.18,11.18,0,0,1-2.25,2.44,13.43,13.43,0,0,1-2.67,1.64,13.1,13.1,0,0,1-2.8.92,13.52,13.52,0,0,1-2.67.29H55.46Zm3,22.73h5.77a14,14,0,0,0,4.08-.57A8.68,8.68,0,0,0,71.58,163a8.33,8.33,0,0,0,2.17-3.09,13.27,13.27,0,0,0,0-9,8.37,8.37,0,0,0-2.17-3.08A8.68,8.68,0,0,0,68.34,146a14,14,0,0,0-4.08-.57H58.49Z" style="fill: #fff"/>
          <path d="M83.56,142.6h3v25.55h-3Z" style="fill: #fff"/>
          <path d="M111.74,147.87a7.37,7.37,0,0,0-2.85-2.33,8.51,8.51,0,0,0-3.53-.77,9,9,0,0,0-3.92.86A9.84,9.84,0,0,0,98.36,148a10.6,10.6,0,0,0-2,3.39,11.22,11.22,0,0,0-.73,4,11.57,11.57,0,0,0,.73,4.17,10.27,10.27,0,0,0,2,3.36,9.25,9.25,0,0,0,7,3.08,9.14,9.14,0,0,0,4.18-.92,9.31,9.31,0,0,0,3.21-2.65l2.28,1.91a10.56,10.56,0,0,1-4.17,3.39,13.3,13.3,0,0,1-5.5,1.09,13.08,13.08,0,0,1-5.13-1,12.59,12.59,0,0,1-6.87-7,14.23,14.23,0,0,1-1-5.38,14.49,14.49,0,0,1,.95-5.26,12.7,12.7,0,0,1,12-8.16,13.69,13.69,0,0,1,5,.94,9.3,9.3,0,0,1,4,3.07Z" style="fill: #fff"/>
          <path d="M128.45,142.6h2.85l10.86,25.55h-3.54l-2.6-6.28H123.25l-2.63,6.28h-3.43Zm1.37,3.9h-.07l-5.31,12.56h10.43Z" style="fill: #fff"/>
          <path d="M146.45,142.6h3v22.73h11.69v2.82H146.45Z" style="fill: #fff"/>
          <path d="M176.33,142.6h3v10.83H193V142.6h3v25.55h-3V156.24H179.36v11.91h-3Z" style="fill: #fff"/>
          <path d="M215.15,168.8a13.91,13.91,0,0,1-5.36-1,13,13,0,0,1-4.22-2.8,12.53,12.53,0,0,1-2.78-4.26,15,15,0,0,1,0-10.71,12.53,12.53,0,0,1,2.78-4.26,13,13,0,0,1,4.22-2.8,14.73,14.73,0,0,1,10.72,0,13,13,0,0,1,4.22,2.8,12.68,12.68,0,0,1,2.78,4.26,15,15,0,0,1,0,10.71,12.68,12.68,0,0,1-2.78,4.26,13,13,0,0,1-4.22,2.8A13.94,13.94,0,0,1,215.15,168.8Zm0-2.82a9.81,9.81,0,0,0,4.09-.83,9.66,9.66,0,0,0,3.2-2.27,10.35,10.35,0,0,0,2.07-3.37,11.92,11.92,0,0,0,0-8.27,10.35,10.35,0,0,0-2.07-3.37,9.66,9.66,0,0,0-3.2-2.27,10.52,10.52,0,0,0-8.19,0,9.62,9.62,0,0,0-3.19,2.27,10.35,10.35,0,0,0-2.07,3.37,11.92,11.92,0,0,0,0,8.27,10.35,10.35,0,0,0,2.07,3.37,9.62,9.62,0,0,0,3.19,2.27A9.85,9.85,0,0,0,215.15,166Z" style="fill: #fff"/>
          <path d="M234.27,142.6h6.53a29.72,29.72,0,0,1,3.66.22,9.74,9.74,0,0,1,3.27.94,5.86,5.86,0,0,1,2.34,2.11,6.76,6.76,0,0,1,.91,3.77,6.21,6.21,0,0,1-1.7,4.54,8.11,8.11,0,0,1-4.69,2.21l7.25,11.76h-3.71l-6.93-11.48h-3.9v11.48h-3Zm3,11.26H240c.84,0,1.71,0,2.61-.07a9.1,9.1,0,0,0,2.49-.47,4.33,4.33,0,0,0,1.88-1.25,3.58,3.58,0,0,0,.74-2.43,4,4,0,0,0-.54-2.2,3.6,3.6,0,0,0-1.43-1.28,6.19,6.19,0,0,0-2-.6,18.25,18.25,0,0,0-2.22-.14H237.3Z" style="fill: #fff"/>
          <path d="M257.22,142.6h3v25.55h-3Z" style="fill: #fff"/>
          <path d="M265.37,165.44l14.76-20H265.59V142.6h18.22v2.6l-14.76,20.13H284v2.82H265.37Z" style="fill: #fff"/>
          <path d="M301,168.8a13.89,13.89,0,0,1-5.35-1,13.07,13.07,0,0,1-4.23-2.8,12.51,12.51,0,0,1-2.77-4.26,14.84,14.84,0,0,1,0-10.71,12.51,12.51,0,0,1,2.77-4.26,13.07,13.07,0,0,1,4.23-2.8,14.7,14.7,0,0,1,10.71,0,12.92,12.92,0,0,1,4.22,2.8,12.53,12.53,0,0,1,2.78,4.26,15,15,0,0,1,0,10.71,12.53,12.53,0,0,1-2.78,4.26,12.92,12.92,0,0,1-4.22,2.8A13.91,13.91,0,0,1,301,168.8Zm0-2.82a9.82,9.82,0,0,0,4.1-.83,9.62,9.62,0,0,0,3.19-2.27,10.55,10.55,0,0,0,2.08-3.37,11.92,11.92,0,0,0,0-8.27,10.55,10.55,0,0,0-2.08-3.37,9.62,9.62,0,0,0-3.19-2.27,10.52,10.52,0,0,0-8.19,0,9.62,9.62,0,0,0-3.19,2.27,10.38,10.38,0,0,0-2.08,3.37,11.92,11.92,0,0,0,0,8.27,10.38,10.38,0,0,0,2.08,3.37,9.62,9.62,0,0,0,3.19,2.27A9.81,9.81,0,0,0,301,166Z" style="fill: #fff"/>
          <path d="M320.11,142.6h3.82l14.79,21.22h.08V142.6h3v25.55H338l-14.79-21.22h-.07v21.22h-3Z" style="fill: #fff"/>
        </g>
        <g>
          <path d="M60.22,190.11A.35.35,0,0,1,60,190a.28.28,0,0,1-.11-.24v-10a.26.26,0,0,1,.12-.23.42.42,0,0,1,.24-.07.44.44,0,0,1,.26.07.27.27,0,0,1,.11.23v9.64h4.29a.22.22,0,0,1,.21.11.44.44,0,0,1,.07.24.4.4,0,0,1-.07.24.21.21,0,0,1-.21.11Z" style="fill: #fff"/>
          <path d="M74.85,190.11a.47.47,0,0,1-.27-.08.25.25,0,0,1-.13-.24s0-.07,0-.08l3.12-10.07a.38.38,0,0,1,.41-.26.42.42,0,0,1,.24.07.31.31,0,0,1,.16.19l3.09,10.07a.06.06,0,0,0,0,0s0,0,0,0a.28.28,0,0,1-.14.23.48.48,0,0,1-.29.09.27.27,0,0,1-.29-.22l-.71-2.31h-4.2l-.69,2.31A.31.31,0,0,1,74.85,190.11Zm5-3.2L78,180.69l-1.93,6.22Z" style="fill: #fff"/>
          <path d="M96.77,179.77a.27.27,0,0,1,.11-.23.44.44,0,0,1,.26-.07.42.42,0,0,1,.24.07.26.26,0,0,1,.12.23v7.37a3.87,3.87,0,0,1-.22,1.41A2.37,2.37,0,0,1,95.71,190a4.08,4.08,0,0,1-2.33,0,2.38,2.38,0,0,1-.93-.53,2.49,2.49,0,0,1-.62-.95,3.85,3.85,0,0,1-.23-1.41v-7.37a.26.26,0,0,1,.12-.23.45.45,0,0,1,.25-.07.43.43,0,0,1,.25.07.27.27,0,0,1,.11.23v7.37a2.39,2.39,0,0,0,.58,1.79,2.63,2.63,0,0,0,3.27,0,2.36,2.36,0,0,0,.59-1.79Z" style="fill: #fff"/>
          <path d="M111.42,179.47a3.9,3.9,0,0,1,1.15.16,2.44,2.44,0,0,1,.94.54,2.36,2.36,0,0,1,.63.94,4,4,0,0,1,.22,1.42v4.52a4,4,0,0,1-.22,1.42,2.36,2.36,0,0,1-.63.94,2.44,2.44,0,0,1-.94.54,3.9,3.9,0,0,1-1.15.16h-2.57a.36.36,0,0,1-.26-.09.3.3,0,0,1-.09-.21v-10a.32.32,0,0,1,.09-.21.36.36,0,0,1,.26-.09Zm-2.2.7v9.24h2.2a2.25,2.25,0,0,0,1.63-.56,2.42,2.42,0,0,0,.59-1.8v-4.52a2.42,2.42,0,0,0-.59-1.8,2.25,2.25,0,0,0-1.63-.56Z" style="fill: #fff"/>
          <path d="M128.13,190.2A3.87,3.87,0,0,1,127,190a2.3,2.3,0,0,1-1.54-1.48,3.65,3.65,0,0,1-.23-1.41v-4.61a3.74,3.74,0,0,1,.23-1.42,2.43,2.43,0,0,1,.61-.94,2.48,2.48,0,0,1,.93-.54,4.25,4.25,0,0,1,2.31,0,2.52,2.52,0,0,1,.94.54,2.45,2.45,0,0,1,.62.94,4,4,0,0,1,.23,1.42v4.61a3.85,3.85,0,0,1-.23,1.41,2.33,2.33,0,0,1-1.56,1.48A3.9,3.9,0,0,1,128.13,190.2Zm2.21-7.67a2.42,2.42,0,0,0-.58-1.8,2.65,2.65,0,0,0-3.26,0,2.46,2.46,0,0,0-.57,1.8v4.61a2.43,2.43,0,0,0,.57,1.79,2.62,2.62,0,0,0,3.26,0,2.39,2.39,0,0,0,.58-1.79Z" style="fill: #fff"/>
          <path d="M144.25,189.5A2.48,2.48,0,0,0,146,189a2.16,2.16,0,0,0,.59-1.64,2.49,2.49,0,0,0-.21-1.09,2.15,2.15,0,0,0-.55-.71,3.06,3.06,0,0,0-.78-.47c-.29-.12-.59-.23-.9-.34s-.6-.22-.89-.35a3.4,3.4,0,0,1-.78-.48,2.08,2.08,0,0,1-.55-.74,2.56,2.56,0,0,1-.21-1.11,2.62,2.62,0,0,1,.28-1.29,2.29,2.29,0,0,1,.72-.79,2.9,2.9,0,0,1,1-.39,5.19,5.19,0,0,1,1-.11,5,5,0,0,1,.86.07,3.75,3.75,0,0,1,.75.18,2.17,2.17,0,0,1,.55.27.42.42,0,0,1,.21.31.54.54,0,0,1-.09.27.3.3,0,0,1-.24.15.48.48,0,0,1-.24-.08l-.4-.19a4.12,4.12,0,0,0-.59-.19,3.34,3.34,0,0,0-.83-.09,4.45,4.45,0,0,0-.81.08,2.13,2.13,0,0,0-.71.29,1.62,1.62,0,0,0-.51.56,1.83,1.83,0,0,0-.2.89,1.55,1.55,0,0,0,.37,1.12,2.58,2.58,0,0,0,.9.64,7.68,7.68,0,0,0,1.17.44,4.67,4.67,0,0,1,1.18.53,3,3,0,0,1,.9.93,3.1,3.1,0,0,1,.36,1.61,3.62,3.62,0,0,1-.22,1.34,2.53,2.53,0,0,1-.62.92,2.42,2.42,0,0,1-.94.53,4.12,4.12,0,0,1-1.19.17,4.27,4.27,0,0,1-1.24-.17,3.66,3.66,0,0,1-.91-.4,2.35,2.35,0,0,1-.56-.51.85.85,0,0,1-.19-.43.45.45,0,0,1,.11-.28.31.31,0,0,1,.23-.13c.09,0,.17.06.27.19a3.45,3.45,0,0,0,.39.42,2.47,2.47,0,0,0,.69.42A2.76,2.76,0,0,0,144.25,189.5Z" style="fill: #fff"/>
          <path d="M172.41,179.47a3.85,3.85,0,0,1,1.15.16,2.44,2.44,0,0,1,.94.54,2.36,2.36,0,0,1,.63.94,4,4,0,0,1,.23,1.42v4.52a4,4,0,0,1-.23,1.42,2.36,2.36,0,0,1-.63.94,2.44,2.44,0,0,1-.94.54,3.85,3.85,0,0,1-1.15.16h-2.57a.36.36,0,0,1-.26-.09.3.3,0,0,1-.09-.21v-10a.32.32,0,0,1,.09-.21.36.36,0,0,1,.26-.09Zm-2.19.7v9.24h2.19a2.3,2.3,0,0,0,1.64-.56,2.46,2.46,0,0,0,.58-1.8v-4.52a2.46,2.46,0,0,0-.58-1.8,2.3,2.3,0,0,0-1.64-.56Z" style="fill: #fff"/>
          <path d="M186.29,179.77a.26.26,0,0,1,.12-.23.45.45,0,0,1,.25-.07.43.43,0,0,1,.25.07.27.27,0,0,1,.11.23v10a.28.28,0,0,1-.11.24.38.38,0,0,1-.25.08.39.39,0,0,1-.25-.08.26.26,0,0,1-.12-.24Z" style="fill: #fff"/>
          <path d="M203.1,182a2,2,0,0,0-.69-1.38,2.35,2.35,0,0,0-1.52-.45,2.25,2.25,0,0,0-1.63.56,2.46,2.46,0,0,0-.57,1.8v4.61a2.43,2.43,0,0,0,.57,1.79,2.22,2.22,0,0,0,1.63.57,2.25,2.25,0,0,0,1.63-.57,2.44,2.44,0,0,0,.58-1.79v-1.95h-2.16a.24.24,0,0,1-.21-.11.4.4,0,0,1-.08-.22.4.4,0,0,1,.08-.23.24.24,0,0,1,.21-.11h2.58a.28.28,0,0,1,.23.1.41.41,0,0,1,.08.24v2.28a3.85,3.85,0,0,1-.23,1.41,2.49,2.49,0,0,1-.62.95,2.57,2.57,0,0,1-.94.53,4,4,0,0,1-1.15.17,3.87,3.87,0,0,1-1.16-.17,2.38,2.38,0,0,1-.93-.53,2.49,2.49,0,0,1-.62-.95,3.87,3.87,0,0,1-.22-1.41v-4.61a4,4,0,0,1,.22-1.42,2.45,2.45,0,0,1,.62-.94,2.4,2.4,0,0,1,.93-.54,3.79,3.79,0,0,1,1.14-.16,3.61,3.61,0,0,1,1.23.19,2.69,2.69,0,0,1,.93.51,2.13,2.13,0,0,1,.59.78,2.3,2.3,0,0,1,.21,1,.37.37,0,0,1-.11.29.36.36,0,0,1-.26.09.44.44,0,0,1-.25-.08A.3.3,0,0,1,203.1,182Z" style="fill: #fff"/>
          <path d="M214.6,179.77a.26.26,0,0,1,.12-.23.45.45,0,0,1,.25-.07.43.43,0,0,1,.25.07.25.25,0,0,1,.11.23v10a.26.26,0,0,1-.11.24.38.38,0,0,1-.25.08.39.39,0,0,1-.25-.08.26.26,0,0,1-.12-.24Z" style="fill: #fff"/>
          <path d="M231.51,179.47a.24.24,0,0,1,.23.1.38.38,0,0,1,.08.23.46.46,0,0,1-.08.25.24.24,0,0,1-.23.12H229v9.62a.26.26,0,0,1-.12.24.39.39,0,0,1-.25.08.38.38,0,0,1-.25-.08.28.28,0,0,1-.11-.24v-9.62h-2.54a.27.27,0,0,1-.22-.11.46.46,0,0,1-.08-.24.41.41,0,0,1,.08-.24.24.24,0,0,1,.22-.11Z" style="fill: #fff"/>
          <path d="M240.7,190.11a.48.48,0,0,1-.28-.08.27.27,0,0,1-.13-.24.13.13,0,0,1,0-.08l3.11-10.07a.39.39,0,0,1,.41-.26.45.45,0,0,1,.25.07.31.31,0,0,1,.16.19l3.09,10.07v0s0,0,0,0a.27.27,0,0,1-.13.23.5.5,0,0,1-.29.09.27.27,0,0,1-.29-.22l-.72-2.31h-4.19l-.7,2.31A.3.3,0,0,1,240.7,190.11Zm5-3.2-1.88-6.22-1.92,6.22Z" style="fill: #fff"/>
          <path d="M257.57,179.77a.25.25,0,0,1,.11-.23.45.45,0,0,1,.25-.07.41.41,0,0,1,.25.07.25.25,0,0,1,.11.23v10a.26.26,0,0,1-.11.24.36.36,0,0,1-.25.08.39.39,0,0,1-.25-.08.26.26,0,0,1-.11-.24Z" style="fill: #fff"/>
          <path d="M271.57,189.5a2.46,2.46,0,0,0,1.72-.54,2.13,2.13,0,0,0,.6-1.64,2.49,2.49,0,0,0-.21-1.09,2.29,2.29,0,0,0-.55-.71,3.06,3.06,0,0,0-.78-.47l-.9-.34c-.3-.11-.6-.22-.89-.35a3,3,0,0,1-.78-.48,2.1,2.1,0,0,1-.56-.74A2.56,2.56,0,0,1,269,182a2.62,2.62,0,0,1,.29-1.29A2.29,2.29,0,0,1,270,180a2.9,2.9,0,0,1,1-.39,5.1,5.1,0,0,1,1-.11,4.91,4.91,0,0,1,.86.07,3.86,3.86,0,0,1,.76.18,2.26,2.26,0,0,1,.54.27.41.41,0,0,1,.22.31.56.56,0,0,1-.1.27.27.27,0,0,1-.24.15.48.48,0,0,1-.24-.08,3.6,3.6,0,0,0-.39-.19,4.12,4.12,0,0,0-.59-.19,3.34,3.34,0,0,0-.83-.09,4.45,4.45,0,0,0-.81.08,2,2,0,0,0-.71.29,1.62,1.62,0,0,0-.51.56,1.83,1.83,0,0,0-.2.89,1.59,1.59,0,0,0,.36,1.12,2.72,2.72,0,0,0,.91.64,7.68,7.68,0,0,0,1.17.44,4.77,4.77,0,0,1,1.17.53,2.86,2.86,0,0,1,.9.93,3,3,0,0,1,.37,1.61,3.61,3.61,0,0,1-.23,1.34,2.41,2.41,0,0,1-.62.92,2.35,2.35,0,0,1-.94.53,4.05,4.05,0,0,1-1.18.17,4.22,4.22,0,0,1-1.24-.17,3.66,3.66,0,0,1-.91-.4,2,2,0,0,1-.56-.51.77.77,0,0,1-.19-.43.45.45,0,0,1,.11-.28.29.29,0,0,1,.22-.13c.09,0,.18.06.27.19a4.81,4.81,0,0,0,.4.42,2.56,2.56,0,0,0,.68.42A2.82,2.82,0,0,0,271.57,189.5Z" style="fill: #fff"/>
        </g>
      </g>
    </g>
  </g>
</svg>
