<svg xmlns="http://www.w3.org/2000/svg" viewBox="0 0 358.29 73.3">
  <g id="Layer_2" data-name="Layer 2">
    <g id="logos">
      <g>
        <g>
          <path d="M115,13.89a.81.81,0,0,1,.91.91v5.7a.81.81,0,0,1-.91.91h-6.62V58.57c0,.63-.28.91-.91.91h-5.93a.81.81,0,0,1-.91-.91V21.41H94a.84.84,0,0,1-.91-.91V14.8a.84.84,0,0,1,.91-.91Z" style="fill: #7f8fa3"/>
          <path d="M148.28,20.5c0,.57-.23,1-.91,1H133.12v11.4H144a.85.85,0,0,1,.91,1v5.65a.86.86,0,0,1-.91,1H133.12V52h14.25c.68,0,.91.28.91.91v5.7c0,.57-.23.91-.91.91h-21a.82.82,0,0,1-.86-.91V14.8a.82.82,0,0,1,.86-.91h21c.68,0,.91.34.91.91Z" style="fill: #7f8fa3"/>
          <path d="M190.46,13.89A1,1,0,0,1,191.6,15V58.34a1,1,0,0,1-1.14,1.14h-5.31A1,1,0,0,1,184,58.34V32.69h-.4L178,58.46a1.18,1.18,0,0,1-1.25,1h-2.79a1.18,1.18,0,0,1-1.26-1L167,32.69h-.4V58.34a1,1,0,0,1-1.14,1.14h-5.24a1,1,0,0,1-1.14-1.14V15a1,1,0,0,1,1.14-1.14h7.52a1.18,1.18,0,0,1,1.26,1l6.32,28.39,6.33-28.39a1.18,1.18,0,0,1,1.25-1Z" style="fill: #7f8fa3"/>
          <path d="M203,14.8a.84.84,0,0,1,.91-.91h13.68c5.36,0,8.21,2.85,8.21,8.2V36c0,5.3-2.85,8.21-8.21,8.21h-6.84V58.57a.81.81,0,0,1-.91.91H203.9a.84.84,0,0,1-.91-.91Zm12.77,21.88A2,2,0,0,0,218,34.4V23.69a2,2,0,0,0-2.28-2.28h-5V36.68Z" style="fill: #7f8fa3"/>
          <path d="M244.94,52H258.5a.81.81,0,0,1,.91.91v5.7c0,.63-.28.91-.91.91H238.1a.82.82,0,0,1-.92-.91V14.8a.84.84,0,0,1,.92-.91H244a.82.82,0,0,1,.92.91Z" style="fill: #7f8fa3"/>
          <path d="M291.1,59.48a.86.86,0,0,1-.91-.8l-1.6-8.32H278.45l-1.54,8.32a.88.88,0,0,1-.92.8H269.9c-.63,0-.92-.34-.75-1l9.47-43.82a.88.88,0,0,1,1-.8h7.93a.88.88,0,0,1,1,.8l9.47,43.82c.11.63-.12,1-.8,1Zm-7.58-35.62-3.65,19.89h7.29Z" style="fill: #7f8fa3"/>
          <path d="M325,13.89a.81.81,0,0,1,.91.91v5.7a.81.81,0,0,1-.91.91h-6.61V58.57a.79.79,0,0,1-.91.91H311.5a.81.81,0,0,1-.91-.91V21.41H304a.84.84,0,0,1-.92-.91V14.8a.84.84,0,0,1,.92-.91Z" style="fill: #7f8fa3"/>
          <path d="M358.29,20.5c0,.57-.23,1-.91,1H343.13v11.4H354a.85.85,0,0,1,.91,1v5.65a.86.86,0,0,1-.91,1H343.13V52h14.25c.68,0,.91.28.91.91v5.7c0,.57-.23.91-.91.91h-21a.82.82,0,0,1-.85-.91V14.8a.82.82,0,0,1,.85-.91h21c.68,0,.91.34.91.91Z" style="fill: #7f8fa3"/>
        </g>
        <circle cx="36.65" cy="36.65" r="36.65" style="fill: #77ddf9"/>
        <g id="_3Ivbaw.tif" data-name="3Ivbaw.tif">
          <path d="M52.29,41.21q0,5.67,0,11.33A1.34,1.34,0,0,1,50,53.66c-.59-.48-1.22-.92-1.85-1.36a1.26,1.26,0,0,0-1.84.18c-.89,1-1.76,2-2.64,3l-.56.63a1.33,1.33,0,0,1-2.18,0c-1-1.06-1.89-2.16-2.86-3.21s-1.49-.94-2.35,0S33.9,54.91,33,56a1.41,1.41,0,0,1-2.41,0c-1-1.13-2-2.27-3-3.39a1.34,1.34,0,0,0-2.09-.18c-.6.45-1.21.89-1.8,1.35a1.29,1.29,0,0,1-1.48.16,1.22,1.22,0,0,1-.68-1.23c0-7.28,0-14.57,0-21.86a14.88,14.88,0,0,1,2-7.09A16,16,0,0,1,28.86,18a14.39,14.39,0,0,1,7.06-2.33A14.9,14.9,0,0,1,46.59,19a15.09,15.09,0,0,1,5.61,10,16.78,16.78,0,0,1,.09,2.24ZM31.84,28.5A2.51,2.51,0,0,0,29.27,31a2.57,2.57,0,0,0,2.47,2.5A2.52,2.52,0,0,0,34.29,31,2.43,2.43,0,0,0,31.84,28.5Zm10.22,0a2.45,2.45,0,0,0-2.52,2.55A2.51,2.51,0,0,0,42,33.52a2.57,2.57,0,0,0,2.54-2.58A2.5,2.5,0,0,0,42.06,28.5Z" style="fill: #f6f6f6"/>
        </g>
      </g>
    </g>
  </g>
</svg>
