<svg xmlns="http://www.w3.org/2000/svg" viewBox="0 0 391.56 76.22">
  <g id="Layer_2" data-name="Layer 2">
    <g id="Layer_1-2" data-name="Layer 1">
      <g>
        <polygon points="0.01 18.52 76.46 18.52 76.46 0 0.01 0 0.01 18.52 0.01 18.52" style="fill: #fdc82f;fill-rule: evenodd"/>
        <path d="M158.51,56.18H134.92l8-28.22h23l-1.88,6.55H150.34l-1.17,4.06h11.67L159,45.16H147.3L146,49.58h14.36l-1.88,6.6ZM0,76.22H76.46V27.78H0V76.22ZM121.48,47.35h0c-.51,0-1,0-1.53,0h-4.66l-2.49,8.78h-9.28L111.58,28h13.6c8.11,0,10.95,3.71,9.33,9.49s-5.83,9.44-13,9.9Zm0-12.84h-2.54l-1.73,6.28h4.26a4.27,4.27,0,0,0,4.21-3.3c.71-2.64-2.13-3-4.11-3ZM344.61,46.58h2.94l-.1-10.14-2.84,5-2.89,5.17Zm0-17.7.61-.92h9.44l2.08,28.22H347.5V52.47h-9.23l-2.13,3.71h-9.08l.55-.87,17-26.43Zm46.83,7.25c.71-4.92-1.72-8.93-9.54-8.93-7.1,0-13.14,3-14.81,9-3.1,10.76,14,7.82,12.78,12.13-.35,1.32-2.13,2.08-4.41,2.08a4.19,4.19,0,0,1-2.44-.71,2.33,2.33,0,0,1-.91-2.23h-8.88c-1.22,5.07,2.39,9.44,9.85,9.44,7.76,0,14.15-3.2,16-9.75C392,36.94,375,39.53,376.22,35.32c.25-1,1.32-1.62,3.4-1.62a4.23,4.23,0,0,1,2.23.51,1.74,1.74,0,0,1,.76,1.92Zm-63.83.41a2.13,2.13,0,0,0,.21-.56c.61-2.13.61-3.86-.21-5.12-1.21-2-4.31-2.9-10-2.9H304.23l-8,28.22h9.23l2.84-9.85h2.8a5.84,5.84,0,0,1,3.39.66c1,.71.82,2,.16,4.26-.06.21-.11.36-.16.51a16.75,16.75,0,0,0-.76,4.42h9.39l.2-.87c-1.06,0-.61-1.22.46-4.92,1.62-5.68,0-6.39-2.64-7.51a9.19,9.19,0,0,0,6.49-6.34Zm-13.14,3.6c2.39-.15,3.86-.91,4.37-2.69.56-2-.76-2.94-2.89-2.94h-4.32L310,40.14h4.46Zm-35.06,16c6.4-.35,11.12-2.63,12.74-8.42.86-3.09,0-5.73-2.84-6.49a10.75,10.75,0,0,0,5.43-6.14c1.57-5.63-3.05-7.11-9.39-7.11H271.8l-8,28.22h13.8c.61,0,1.22,0,1.82-.06Zm0-21.61h3c2,0,3.75.05,3.14,2.28-.45,1.63-2,2.44-3.9,2.44h-3.81l1.32-4.72Zm0,9.89c2.9,0,5,.16,4.32,2.59-.56,2-2.23,2.54-4.32,2.59H275l1.47-5.18h3Zm-33.08,5.23c2.74-1.07,4.57-4,5.58-7.71,1.12-3.86.72-7.92-3.39-7.82a6.06,6.06,0,0,0-2.19.41c-2.89,1.17-4.66,4.51-5.48,7.41-1.06,3.6-1.21,8.12,3.2,8.12a6.83,6.83,0,0,0,2.28-.41Zm0-22a19.84,19.84,0,0,1,4.22-.46c10.09,0,12.78,7.26,10.65,14.72a20.17,20.17,0,0,1-14.87,14.56,19.86,19.86,0,0,1-4.26.46c-8.83,0-13.19-5.48-10.5-15.12a19.8,19.8,0,0,1,14.76-14.16Zm-32.52,24.1c.05-.15.1-.3.15-.51.66-2.23.82-3.55-.15-4.26a5.86,5.86,0,0,0-3.4-.66h-2.79l-2.74,9.85H195.6l1.06-3.71,7-24.51h13.3c9.43,0,11.77,2.54,10.25,8a9.51,9.51,0,0,1-6.7,6.9c2.64,1.12,4.26,1.83,2.64,7.51-1.07,3.7-1.53,4.92-.41,4.92l-.25.87h-9.39a19.34,19.34,0,0,1,.76-4.42Zm0-11.62c2.39-.15,3.86-.91,4.37-2.69.55-2-.77-2.94-2.9-2.94H211l-1.62,5.63h4.46Zm-17.15-8.47L197.73,28H171.8l-2.08,7.41H178l-5.93,20.81h9.23l5.94-20.81h8.32l1.06-3.7Z" style="fill: #008542;fill-rule: evenodd"/>
        <path d="M76.46,27.78V18.51H0v9.27H14.71L6.56,56H23.25c7.23,0,8.49-1.69,10-2.92,1.95-1.64,3-5.55,2.13-8.28a6,6,0,0,0-2.65-3.14A8.94,8.94,0,0,0,36.43,38a7,7,0,0,0-.6-7.43c-1.73-2.12-5.1-2.7-7.54-2.74H46.16L38,56h8.28l3-10.72H54c3.44,0,3.13,2.14,3.21,3.06l.27,7.88h7.69s-.35-8.84-.38-9.49c-.1-2.27-1.6-3.29-2.89-3.29a10.39,10.39,0,0,0,5.46-4.34,8.11,8.11,0,0,0,.75-6.89c-1.41-3.79-5.06-4.42-7.61-4.47ZM52.59,33.46h6c2.86,0,3,1.94,3,2.5,0,1.29-1.13,3.82-4.6,3.82H50.84s1.72-6.16,1.75-6.32ZM18.22,44.08h5.51c2.7,0,2.85.73,3.23,1.36a3.16,3.16,0,0,1-.06,2.39c-.32.57-.87,2.34-4.32,2.34H16.46l1.76-6.09Zm3-10.65h6.37A2.24,2.24,0,0,1,30,35.58a3.14,3.14,0,0,1-3.43,3.07H19.76l1.48-5.22Z" style="fill: #fff;fill-rule: evenodd"/>
      </g>
    </g>
  </g>
</svg>
