<svg xmlns="http://www.w3.org/2000/svg" viewBox="0 0 265.23 45.59">
  <g id="Layer_2" data-name="Layer 2">
    <g id="logos">
      <g>
        <path d="M21.88,0a.82.82,0,0,1,.92.91v5.7a.82.82,0,0,1-.92.91H15.27V44.68c0,.63-.28.91-.91.91H8.43a.81.81,0,0,1-.91-.91V7.52H.91A.84.84,0,0,1,0,6.61V.91A.84.84,0,0,1,.91,0Z" style="fill: #7f8fa3"/>
        <path d="M55.22,6.61c0,.57-.23,1-.91,1H40.06V19H51a.85.85,0,0,1,.91,1v5.64a.85.85,0,0,1-.91,1H40.06V38.07H54.31c.68,0,.91.28.91.91v5.7c0,.57-.23.91-.91.91h-21a.82.82,0,0,1-.86-.91V.91A.82.82,0,0,1,33.34,0h21c.68,0,.91.34.91.91Z" style="fill: #7f8fa3"/>
        <path d="M97.39,0a1,1,0,0,1,1.15,1.14V44.45a1,1,0,0,1-1.15,1.14h-5.3A1,1,0,0,1,91,44.45V18.81h-.4L84.91,44.57a1.18,1.18,0,0,1-1.25,1H80.87a1.18,1.18,0,0,1-1.26-1L74,18.81h-.4V44.45a1,1,0,0,1-1.14,1.14H67.19a1,1,0,0,1-1.14-1.14V1.14A1,1,0,0,1,67.19,0h7.52A1.19,1.19,0,0,1,76,1l6.32,28.38L88.62,1a1.18,1.18,0,0,1,1.25-1Z" style="fill: #7f8fa3"/>
        <path d="M109.93.91a.84.84,0,0,1,.91-.91h13.68c5.36,0,8.21,2.85,8.21,8.21v13.9c0,5.3-2.85,8.21-8.21,8.21h-6.84V44.68a.81.81,0,0,1-.91.91h-5.93a.84.84,0,0,1-.91-.91ZM122.7,22.8A2,2,0,0,0,125,20.52V9.8a2,2,0,0,0-2.28-2.28h-5V22.8Z" style="fill: #7f8fa3"/>
        <path d="M151.88,38.07h13.56a.81.81,0,0,1,.91.91v5.7c0,.63-.28.91-.91.91H145a.81.81,0,0,1-.92-.91V.91A.84.84,0,0,1,145,0H151a.82.82,0,0,1,.92.91Z" style="fill: #7f8fa3"/>
        <path d="M198,45.59a.88.88,0,0,1-.92-.8l-1.59-8.32H185.38l-1.53,8.32a.88.88,0,0,1-.92.8h-6.09c-.63,0-.92-.34-.75-1L185.55.8a.89.89,0,0,1,1-.8h7.93a.88.88,0,0,1,1,.8l9.47,43.82c.11.63-.12,1-.8,1ZM190.46,10l-3.65,19.89h7.29Z" style="fill: #7f8fa3"/>
        <path d="M231.89,0a.81.81,0,0,1,.91.91v5.7a.81.81,0,0,1-.91.91h-6.61V44.68a.79.79,0,0,1-.91.91h-5.93a.81.81,0,0,1-.91-.91V7.52h-6.61a.84.84,0,0,1-.92-.91V.91a.84.84,0,0,1,.92-.91Z" style="fill: #7f8fa3"/>
        <path d="M265.23,6.61c0,.57-.23,1-.92,1H250.07V19H261a.85.85,0,0,1,.91,1v5.64a.85.85,0,0,1-.91,1H250.07V38.07h14.24c.69,0,.92.28.92.91v5.7c0,.57-.23.91-.92.91h-21a.82.82,0,0,1-.85-.91V.91a.82.82,0,0,1,.85-.91h21c.69,0,.92.34.92.91Z" style="fill: #7f8fa3"/>
      </g>
    </g>
  </g>
</svg>
