<svg xmlns="http://www.w3.org/2000/svg" viewBox="0 0 484.83 114.83">
  <g id="Layer_2" data-name="Layer 2">
    <g id="Layer_1-2" data-name="Layer 1">
      <g>
        <rect x="1.42" y="1.43" width="141" height="112" style="fill: #f2f2f2"/>
        <rect x="142.42" y="1.43" width="341" height="112" style="fill: #666"/>
        <rect x="1.42" y="1.42" width="482" height="112" style="fill: none;stroke: #333;stroke-miterlimit: 10;stroke-width: 2.8346457481384277px"/>
        <g>
          <path d="M46.14,52a5.78,5.78,0,0,1-.87,3.15,2.94,2.94,0,0,1-2.68,1.38,4.1,4.1,0,0,1-3-1,3.1,3.1,0,0,1-1-2.23,7.35,7.35,0,0,1,.12-1.39c.08-.42.15-.84.22-1.26A7.68,7.68,0,0,0,35.1,52a11.3,11.3,0,0,0-3.72,3.75v20a3.77,3.77,0,0,0,.47,2,2.82,2.82,0,0,0,1.48,1.15,9.16,9.16,0,0,0,2.24.52c.92.12,1.72.2,2.39.25v2.3H19.86v-2.3l1.65-.14A6.5,6.5,0,0,0,23,79.17a2.49,2.49,0,0,0,1.44-1.09,3.88,3.88,0,0,0,.47-2V54.86a4.81,4.81,0,0,0-.5-2.12A4.34,4.34,0,0,0,23,51.07a4.72,4.72,0,0,0-1.57-.6,13.9,13.9,0,0,0-2-.27V47.91l11.42-.77.49.49v4.84h.17a15.51,15.51,0,0,1,4.81-4.28,10.09,10.09,0,0,1,4.84-1.47,4.75,4.75,0,0,1,3.57,1.43A5.31,5.31,0,0,1,46.14,52Z" style="fill: #333"/>
          <path d="M83.91,64.69a18.36,18.36,0,0,1-4.87,13,15,15,0,0,1-11.31,5.26,18.24,18.24,0,0,1-5.56-.87A23.81,23.81,0,0,1,57,79.73l-2.58,4-2.16-.49c.12-1.72.2-3.78.25-6.2s.07-4.75.07-7V36a5.67,5.67,0,0,0-.54-2.37A3.79,3.79,0,0,0,50.7,32a5.53,5.53,0,0,0-2.21-.68c-1-.15-1.86-.25-2.49-.29V28.76L58.6,28l.49.53V51.14l.25.07a14.65,14.65,0,0,1,4.71-3.44,12.16,12.16,0,0,1,5-1.15,13.34,13.34,0,0,1,10.59,5Q83.92,56.64,83.91,64.69Zm-7.27.24a25.93,25.93,0,0,0-.56-5.26A15,15,0,0,0,74.34,55a9.62,9.62,0,0,0-3.1-3.27,8.18,8.18,0,0,0-4.59-1.26,9.05,9.05,0,0,0-4.27,1A11.73,11.73,0,0,0,59.09,54V74a8.65,8.65,0,0,0,.82,2,9.15,9.15,0,0,0,1.65,2.12,8.84,8.84,0,0,0,2.37,1.58,7.65,7.65,0,0,0,3.24.61q4.24,0,6.86-4.1T76.64,64.93Z" style="fill: #333"/>
          <path d="M125.38,81.89H115l-5.82-8.42q-3.11-4.48-6.45-8.73L99.89,67.4v8.15a4.15,4.15,0,0,0,.46,2.07,2.6,2.6,0,0,0,1.46,1.2,9.28,9.28,0,0,0,1.6.52,11.59,11.59,0,0,0,1.77.25v2.3H88.37v-2.3L90,79.43a7.77,7.77,0,0,0,1.45-.26,2.55,2.55,0,0,0,1.45-1.1,3.76,3.76,0,0,0,.49-2V36.11a5.53,5.53,0,0,0-.54-2.42A4.24,4.24,0,0,0,91.47,32a4.73,4.73,0,0,0-2.28-.73c-1-.11-1.86-.2-2.49-.24V28.76L99.41,28l.48.53V64.83q2.72-2.71,5.87-5.83t5.32-5.55a7.67,7.67,0,0,0,.6-.82,1.57,1.57,0,0,0,.34-.82c0-.63-.51-1.09-1.52-1.39a16.66,16.66,0,0,0-2.9-.63V47.56h15.1v2.16a23.57,23.57,0,0,0-5.17,2.17,22.49,22.49,0,0,0-3.43,2.35c-.56.47-1.35,1.22-2.37,2.26s-2.45,2.41-4.29,4.1q2.85,3.52,6.43,8.43t5.2,7.11a9.09,9.09,0,0,0,2.76,2.68,9.24,9.24,0,0,0,3.55.77Z" style="fill: #333"/>
        </g>
        <g>
          <path d="M216.35,81.3H195.26V78.76a21.23,21.23,0,0,0,4.63-.71c1.23-.36,1.84-.8,1.84-1.32a5,5,0,0,0-.07-.79,3.62,3.62,0,0,0-.22-.82l-4.2-11.37h-17.8c-.67,1.67-1.22,3.12-1.63,4.36s-.8,2.38-1.13,3.43a24.92,24.92,0,0,0-.65,2.51,8.69,8.69,0,0,0-.17,1.57q0,1.42,2.25,2.22a18.09,18.09,0,0,0,5.07.92V81.3h-19.1V78.76a13.76,13.76,0,0,0,2.32-.41,7.39,7.39,0,0,0,2.29-.91,9,9,0,0,0,2.22-2,13.71,13.71,0,0,0,1.54-2.91q3.81-9.56,8.43-21.45t8.22-21.2H192l16.91,43.76a8.7,8.7,0,0,0,1.22,2.25,8.24,8.24,0,0,0,1.9,1.68,8.08,8.08,0,0,0,2.14.84,10.4,10.4,0,0,0,2.22.37ZM195.94,60.57l-7.69-19.69-7.57,19.69Z" style="fill: #fff"/>
          <path d="M256.17,81.3H238.94V78.94l1.81-.14a6.55,6.55,0,0,0,1.62-.29,2.6,2.6,0,0,0,1.49-1.12,4,4,0,0,0,.48-2.09V57.17a8.57,8.57,0,0,0-1.77-5.79,5.54,5.54,0,0,0-4.32-2,9.93,9.93,0,0,0-3.48.59A12.64,12.64,0,0,0,232,51.38a7.84,7.84,0,0,0-1.88,1.77,16.52,16.52,0,0,0-1,1.52V74.94a3.68,3.68,0,0,0,.5,2,3.26,3.26,0,0,0,1.51,1.22,7,7,0,0,0,1.62.53,13.37,13.37,0,0,0,1.81.25V81.3H217.24V78.94l1.7-.14a6.32,6.32,0,0,0,1.52-.29,2.54,2.54,0,0,0,1.48-1.12,4,4,0,0,0,.48-2.09V53.56a5,5,0,0,0-.51-2.24,4.55,4.55,0,0,0-1.45-1.66,5.05,5.05,0,0,0-1.61-.62,14.87,14.87,0,0,0-2-.27V46.41l11.72-.79.5.5v5h.18c.57-.57,1.29-1.25,2.15-2.05a18.83,18.83,0,0,1,2.43-1.95A12.84,12.84,0,0,1,237,45.66a13.82,13.82,0,0,1,4.12-.57q5.07,0,7.52,3.16a13.42,13.42,0,0,1,2.45,8.42V75a4.07,4.07,0,0,0,.43,2,2.83,2.83,0,0,0,1.46,1.2,10,10,0,0,0,1.49.5,11.12,11.12,0,0,0,1.73.21Z" style="fill: #fff"/>
          <path d="M293.89,80.66c-1.12.41-2.1.73-2.95,1a10.2,10.2,0,0,1-2.88.38,7,7,0,0,1-4.45-1.31,6,6,0,0,1-2.13-3.8h-.21a17.57,17.57,0,0,1-5,3.93,14,14,0,0,1-6.42,1.36,9.08,9.08,0,0,1-6.52-2.43,8.41,8.41,0,0,1-2.56-6.37,10.57,10.57,0,0,1,.58-3.64,8.69,8.69,0,0,1,1.71-2.9A8.5,8.5,0,0,1,265.43,65a20.79,20.79,0,0,1,2.75-1.34c1.08-.41,3.25-1.16,6.53-2.26a47.72,47.72,0,0,0,6.63-2.57V55.24a15.69,15.69,0,0,0-.2-1.79,7.47,7.47,0,0,0-.84-2.5,7,7,0,0,0-2-2.3,6,6,0,0,0-3.7-1,8.27,8.27,0,0,0-3.05.56,5.52,5.52,0,0,0-2,1.16,10.29,10.29,0,0,0,.34,2.11,10.7,10.7,0,0,1,.34,2.57,3.06,3.06,0,0,1-1.12,2.29,4.46,4.46,0,0,1-3.13,1,3,3,0,0,1-2.63-1.27,5,5,0,0,1,.32-6,11.64,11.64,0,0,1,3-2.68,16.22,16.22,0,0,1,3.9-1.7,15.12,15.12,0,0,1,4.47-.7,29.72,29.72,0,0,1,5.24.41,9.76,9.76,0,0,1,4,1.77,8.23,8.23,0,0,1,2.77,3.6,15.14,15.14,0,0,1,.95,5.84c0,3.41,0,6.43-.11,9.06s-.1,5.52-.1,8.64a4.34,4.34,0,0,0,.48,2.21,3.93,3.93,0,0,0,1.48,1.4,3.81,3.81,0,0,0,1.7.36c.78,0,1.57,0,2.38,0ZM281.41,61.78c-2,.6-3.8,1.19-5.32,1.76a21.26,21.26,0,0,0-4.26,2.15A9.65,9.65,0,0,0,269,68.57a7.35,7.35,0,0,0-1,4,5.62,5.62,0,0,0,1.55,4.37,5.72,5.72,0,0,0,4,1.4,8,8,0,0,0,4.46-1.24,12.75,12.75,0,0,0,3.26-2.92Z" style="fill: #fff"/>
          <path d="M313.91,81.3h-17.2V78.94c.55,0,1.14-.1,1.76-.16a8.2,8.2,0,0,0,1.53-.27,2.62,2.62,0,0,0,1.5-1.12,3.89,3.89,0,0,0,.51-2.1V34.44a5.41,5.41,0,0,0-.56-2.42A4.65,4.65,0,0,0,300,30.25a7.28,7.28,0,0,0-2.36-.78,19.86,19.86,0,0,0-2.75-.43V26.75L308.15,26l.5.54V74.87a4,4,0,0,0,.47,2,3,3,0,0,0,1.5,1.24,8,8,0,0,0,1.56.53,10.41,10.41,0,0,0,1.73.25Z" style="fill: #fff"/>
          <path d="M315.66,92.81a4.29,4.29,0,0,1,1-2.91,3.13,3.13,0,0,1,2.45-1.13,4.3,4.3,0,0,1,2,.43,5.25,5.25,0,0,1,1.46,1.1,9.27,9.27,0,0,1,1.15,1.45q.6.93,1,1.53c1.19-.64,2.62-2.32,4.27-5a40.68,40.68,0,0,0,3.6-7.13q-3.4-8.48-6.15-15.16T320.6,52.13a5.18,5.18,0,0,0-2.29-2.56,9.8,9.8,0,0,0-3.22-1.16V46.05h16.09v2.51a11.41,11.41,0,0,0-2.57.44c-1,.28-1.5.59-1.5,1a2.58,2.58,0,0,0,.16.71c.11.34.23.68.37,1q1.37,3.54,4.14,10.2t4.31,10.66l3.35-7.91q1.74-4.1,3.88-9.66c.17-.46.41-1.08.72-1.88a5.86,5.86,0,0,0,.47-2c0-.62-.55-1.2-1.63-1.74a9.92,9.92,0,0,0-3.09-1V46.05h13.09v2.22a8.85,8.85,0,0,0-2.83,1.23,6.51,6.51,0,0,0-2.61,3q-4.24,9.87-7.56,18t-5,11.94a65.3,65.3,0,0,1-4,7.81,23.45,23.45,0,0,1-3.45,4.42,10.13,10.13,0,0,1-3,2,7.73,7.73,0,0,1-2.77.52,6.66,6.66,0,0,1-4.38-1.33A3.88,3.88,0,0,1,315.66,92.81Z" style="fill: #fff"/>
          <path d="M376.15,79.77c-1.55.64-3,1.18-4.4,1.62a16.86,16.86,0,0,1-5.07.66q-4.44,0-6.24-2.23a9.76,9.76,0,0,1-1.81-6.31V49.63h-6.36V46.2h6.51v-11h6.5v11H375.4v3.43h-10v19.7c0,1.47.06,2.71.16,3.7a7,7,0,0,0,.77,2.59A3.71,3.71,0,0,0,368,77.19a7.28,7.28,0,0,0,3.07.54c.6,0,1.48-.06,2.63-.16a12.26,12.26,0,0,0,2.45-.41Z" style="fill: #fff"/>
          <path d="M396.74,81.3h-17V78.94l1.69-.14a6.22,6.22,0,0,0,1.52-.29,2.56,2.56,0,0,0,1.49-1.12,4,4,0,0,0,.48-2.09V53.56a4.21,4.21,0,0,0-.52-2.09,4.58,4.58,0,0,0-1.45-1.59,6.35,6.35,0,0,0-2-.73,14.18,14.18,0,0,0-2.36-.38V46.41l12.44-.79.5.5V74.87a4.06,4.06,0,0,0,.48,2.07,2.87,2.87,0,0,0,1.51,1.22,15.22,15.22,0,0,0,1.52.52,9,9,0,0,0,1.67.26Zm-4.47-49.58a5.15,5.15,0,0,1-1.34,3.55,4.28,4.28,0,0,1-6.47.08A4.76,4.76,0,0,1,383.12,32a4.92,4.92,0,0,1,1.34-3.43,4.17,4.17,0,0,1,3.17-1.47A4.4,4.4,0,0,1,391,28.52,4.5,4.5,0,0,1,392.27,31.72Z" style="fill: #fff"/>
          <path d="M417.41,82.23q-7.65,0-12-5.07T401.1,63.53a20.32,20.32,0,0,1,1.17-7,19.26,19.26,0,0,1,3.37-5.88,15.76,15.76,0,0,1,5.29-4.09,15.59,15.59,0,0,1,6.94-1.56,13.5,13.5,0,0,1,8.44,2.49,8,8,0,0,1,3.25,6.77,5.91,5.91,0,0,1-.86,3.17,3.07,3.07,0,0,1-2.82,1.37,4.6,4.6,0,0,1-3.27-1.07,3.17,3.17,0,0,1-1.16-2.38,13.24,13.24,0,0,1,.43-3.3,19.62,19.62,0,0,0,.5-2.48,3.2,3.2,0,0,0-1.91-1.48,9.63,9.63,0,0,0-2.73-.37,7.5,7.5,0,0,0-3.26.73,8.45,8.45,0,0,0-3,2.7A14.5,14.5,0,0,0,409.32,56a28.34,28.34,0,0,0-.82,7.25c0,4.44,1,8,2.95,10.86a9,9,0,0,0,7.73,4.2,9.68,9.68,0,0,0,5.8-1.69,16.49,16.49,0,0,0,4.33-5.07l2.29,1.5a18.55,18.55,0,0,1-6.22,6.69A14.66,14.66,0,0,1,417.41,82.23Z" style="fill: #fff"/>
          <path d="M457.63,64a9.07,9.07,0,0,1,2.25,3,9.72,9.72,0,0,1,.78,4.11,10,10,0,0,1-3.66,8,15.66,15.66,0,0,1-15.16,2,15.29,15.29,0,0,1-3.7-2l-.71,2.32h-2.68l-.36-12.26h2.46a14.11,14.11,0,0,0,1.22,3.26,15.48,15.48,0,0,0,2.25,3.37,12.38,12.38,0,0,0,3.35,2.66A8.82,8.82,0,0,0,448,79.52a8,8,0,0,0,5.3-1.57,5.54,5.54,0,0,0,1.85-4.48,5.3,5.3,0,0,0-.59-2.59A5.77,5.77,0,0,0,452.87,69a13.5,13.5,0,0,0-2.9-1.48c-1.14-.45-2.41-.88-3.82-1.31a33.56,33.56,0,0,1-3.74-1.38,15,15,0,0,1-3.52-2,10.12,10.12,0,0,1-2.57-3.08,8.72,8.72,0,0,1-1-4.29,9.64,9.64,0,0,1,3.21-7.32,12.11,12.11,0,0,1,8.62-3,17.54,17.54,0,0,1,4.24.54,14.44,14.44,0,0,1,3.52,1.29l.82-1.86h2.58l.53,11.33h-2.47a11.33,11.33,0,0,0-3.23-6.19,8.44,8.44,0,0,0-6.06-2.39,6.7,6.7,0,0,0-4.61,1.48,4.57,4.57,0,0,0-1.68,3.56,5.79,5.79,0,0,0,.55,2.68A4.87,4.87,0,0,0,443,57.31a14.11,14.11,0,0,0,2.7,1.35q1.64.62,4,1.41a34.19,34.19,0,0,1,4.46,1.75A14.88,14.88,0,0,1,457.63,64Z" style="fill: #fff"/>
        </g>
      </g>
    </g>
  </g>
</svg>
