<svg xmlns="http://www.w3.org/2000/svg" viewBox="0 0 109.3 109.3">
  <g id="Layer_2" data-name="Layer 2">
    <g id="logos">
      <g>
        <circle cx="54.65" cy="54.65" r="54.65" style="fill: #77ddf9"/>
        <g id="_3Ivbaw.tif" data-name="3Ivbaw.tif">
          <path d="M80.38,61.84c0,6.16,0,12.32,0,18.48a2.18,2.18,0,0,1-3.73,1.82c-1-.79-2-1.49-3-2.22a2.06,2.06,0,0,0-3,.3c-1.47,1.59-2.88,3.23-4.31,4.84l-.92,1a2.17,2.17,0,0,1-3.55,0c-1.57-1.73-3.09-3.52-4.66-5.24-1.4-1.53-2.44-1.53-3.83,0s-3,3.33-4.46,5c-1.28,1.49-2.6,1.51-3.91,0-1.64-1.84-3.25-3.71-4.91-5.53-1.1-1.21-2.1-1.27-3.42-.29-1,.73-2,1.45-2.93,2.2a2.12,2.12,0,0,1-2.42.27,2,2,0,0,1-1.11-2c0-11.89,0-23.77,0-35.65a24.08,24.08,0,0,1,3.25-11.57A26,26,0,0,1,42.16,24a23.49,23.49,0,0,1,11.52-3.81,24.3,24.3,0,0,1,17.4,5.49A24.59,24.59,0,0,1,80.24,42a29.86,29.86,0,0,1,.14,3.66C80.39,51.05,80.38,56.45,80.38,61.84ZM47,41.11a4.07,4.07,0,0,0-4.19,4.11,4.17,4.17,0,0,0,4,4.07A4.11,4.11,0,0,0,51,45.13,4,4,0,0,0,47,41.11Zm16.66,0a4,4,0,0,0-4.11,4.15,4.1,4.1,0,0,0,4,4,4.19,4.19,0,0,0,4.15-4.21A4.08,4.08,0,0,0,63.69,41.11Z" style="fill: #f6f6f6"/>
        </g>
      </g>
    </g>
  </g>
</svg>
