<?xml version="1.0" encoding="utf-8"?>
<!-- Generator: Adobe Illustrator 19.1.0, SVG Export Plug-In . SVG Version: 6.00 Build 0)  -->
<!DOCTYPE svg PUBLIC "-//W3C//DTD SVG 1.1//EN" "http://www.w3.org/Graphics/SVG/1.1/DTD/svg11.dtd">
<svg version="1.1" id="Layer_1" xmlns="http://www.w3.org/2000/svg" xmlns:xlink="http://www.w3.org/1999/xlink" x="0px" y="0px"
	 viewBox="0 0 786.4 243.2" enable-background="new 0 0 786.4 243.2" xml:space="preserve">
<g>
	<g>
		<polygon fill-rule="evenodd" clip-rule="evenodd" fill="#FFFFFF" points="348.6,81.1 348.6,97.3 324.3,97.3 324.3,162.1 
			308.1,162.1 308.1,97.3 283.7,97.3 283.7,81.1 		"/>
		<path fill-rule="evenodd" clip-rule="evenodd" fill="#FFFFFF" d="M467,81.1c-22.4,0-40.5,18.1-40.5,40.5s18.2,40.5,40.5,40.5h27.6
			v-16.2H467c-13.4,0-24.3-10.9-24.3-24.3s10.9-24.3,24.3-24.3h27.6V81.1H467z"/>
		<path fill-rule="evenodd" clip-rule="evenodd" fill="#FFFFFF" d="M575.7,81.1h40.5c13.4,0,24.3,10.9,24.3,24.3
			s-10.9,24.3-24.3,24.3h-4.5l28.7,32.4h-21.7l-43.1-48.6h40.5c4.5,0,8.1-3.6,8.1-8.1c0-4.5-3.6-8.1-8.1-8.1h-40.5V81.1z"/>
		<polygon fill-rule="evenodd" clip-rule="evenodd" fill="#FFFFFF" points="672.9,81.1 689.1,81.1 713.4,162.1 696.5,162.1 
			681,110.5 665.5,162.1 648.5,162.1 		"/>
		<path fill-rule="evenodd" clip-rule="evenodd" fill="#FFFFFF" d="M786.4,81.1h-40.5c-13.4,0-24.3,10.9-24.3,24.3v56.7h16.2v-32.4
			h32.4v-16.2h-32.4v-8.1c0-4.5,3.6-8.1,8.1-8.1h40.5V81.1z"/>
		<path fill-rule="evenodd" clip-rule="evenodd" fill="#FFFFFF" d="M540,81.1c-22.4,0-40.5,18.1-40.5,40.5s18.2,40.5,40.5,40.5h27.6
			v-48.6h-16.2v32.4H540c-13.4,0-24.3-10.9-24.3-24.3s10.9-24.3,24.3-24.3h27.6V81.1H540z"/>
		<path fill-rule="evenodd" clip-rule="evenodd" fill="#FFFFFF" d="M421.6,81.1h-40.5c-13.4,0-24.3,10.9-24.3,24.3v32.4
			c0,13.4,10.9,24.3,24.3,24.3h40.5v-16.2h-40.5c-4.5,0-8.1-3.6-8.1-8.1v-8.1h32.4v-16.2h-32.4v-8.1c0-4.5,3.6-8.1,8.1-8.1h40.5
			V81.1z"/>
	</g>
	<g>
		<path fill-rule="evenodd" clip-rule="evenodd" fill="#FFFFFF" d="M337.1,212.1c4.1,0,7.4-3.3,7.4-7.4c0-4.1-3.3-7.4-7.4-7.4h-20.9
			v14.9L337.1,212.1L337.1,212.1z M337.1,189.2c8.6,0,15.5,7,15.5,15.5c0,8.6-7,15.5-15.5,15.5h-20.9v23h-8.1v-54H337.1z"/>
		<path fill-rule="evenodd" clip-rule="evenodd" fill="#FFFFFF" d="M380.4,235.1c-4.1,0-7.4-3.3-7.4-7.4v-38.5h-8.1v38.5
			c0,8.6,7,15.5,15.5,15.5h12.2c8.6,0,15.5-7,15.5-15.5v-38.5H400v38.5c0,4.1-3.3,7.4-7.4,7.4H380.4z"/>
		<path fill-rule="evenodd" clip-rule="evenodd" fill="#FFFFFF" d="M447.3,243.2c-14.9,0-27-12.1-27-27c0-14.9,12.1-27,27-27h17.6
			v8.1h-17.6c-10.5,0-18.9,8.5-18.9,18.9c0,10.4,8.5,18.9,18.9,18.9h17.6v8.1H447.3z"/>
		<path fill-rule="evenodd" clip-rule="evenodd" fill="#FFFFFF" d="M561,212.1c4.1,0,7.4-3.3,7.4-7.4c0-4.1-3.3-7.4-7.4-7.4h-20.9
			v14.9L561,212.1L561,212.1z M575.2,243.2h-8.6l-8.1-23h-18.4v23h-8.1v-54H561c8.6,0,15.5,7,15.5,15.5c0,6.6-4.1,12.2-9.8,14.5
			L575.2,243.2z"/>
		<rect x="475.7" y="212.1" fill-rule="evenodd" clip-rule="evenodd" fill="#FFFFFF" width="43.3" height="8.1"/>
		<rect x="589.6" y="189.2" fill-rule="evenodd" clip-rule="evenodd" fill="#FFFFFF" width="8.1" height="54"/>
		<path fill-rule="evenodd" clip-rule="evenodd" fill="#FFFFFF" d="M637.7,189.2c14.9,0,27,12.1,27,27c0,14.9-12.1,27-27,27
			c-14.9,0-27-12.1-27-27C610.7,201.3,622.8,189.2,637.7,189.2L637.7,189.2z M637.7,197.3c-10.5,0-18.9,8.5-18.9,18.9
			c0,10.4,8.5,18.9,18.9,18.9c10.5,0,18.9-8.5,18.9-18.9C656.7,205.7,648.2,197.3,637.7,197.3z"/>
	</g>
	<g>
		<path fill-rule="evenodd" clip-rule="evenodd" fill="#FFFFFF" d="M159.6,74.6c-4-34.6-12.2-58.4-21.8-58.4
			c-4.4,0-8.6,5.1-12.2,14.1c4,10.1,7.3,25,9.4,42.8C143.6,73.4,151.8,73.9,159.6,74.6z"/>
		<path fill-rule="evenodd" clip-rule="evenodd" fill="#FFFFFF" d="M162.1,121.6c0-4.9-0.1-9.7-0.2-14.4c21.5,2.1,39.4,5.7,51,10.3
			c9-3.6,14.1-7.7,14.1-12.2c0-13.4-47.2-24.3-105.4-24.3c-2.1,0-4.2,0-6.2,0c-0.7,7.7-1.3,15.9-1.6,24.3c2.6,0,5.2-0.1,7.8-0.1
			c5.4,0,10.7,0.1,15.9,0.3c0.2,5.2,0.3,10.5,0.3,15.9c0,2.6,0,5.2-0.1,7.8c8.5-0.3,16.6-0.8,24.3-1.6
			C162.1,125.8,162.1,123.7,162.1,121.6z"/>
		<path fill-rule="evenodd" clip-rule="evenodd" fill="#FFFFFF" d="M137.8,0h-32.4C91,0,78.8,35.1,74.6,83.6
			c-34.6,4-58.4,12.2-58.4,21.8c0,4.4,5.1,8.6,14.1,12.2c10.1-4,25-7.3,42.8-9.4C73,112.5,73,117,73,121.6c0,1.8,0,3.6,0,5.4
			c10,1.2,20.9,2,32.5,2.5c0-2.6-0.1-5.2-0.1-7.8C105.4,54.4,119.9,0,137.8,0z"/>
		<path fill-rule="evenodd" clip-rule="evenodd" fill="#FFFFFF" d="M243.2,105.4v32.4c0,14.4-35.1,26.6-83.6,30.8
			c-4,34.6-12.2,58.4-21.8,58.4c-4.4,0-8.6-5.1-12.2-14.1c4-10.1,7.3-25,9.4-42.8c-4.4,0.1-8.9,0.2-13.5,0.2
			c-4.6,0-9.1-0.1-13.5-0.2c5,43.1,16.4,73.2,29.7,73.2h-32.4c-13.5,0-25.1-31.2-30-75.4C31.2,163,0,151.4,0,137.8v-32.4
			c0,17.9,54.4,32.4,121.6,32.4S243.2,123.3,243.2,105.4z"/>
	</g>
</g>
</svg>
