<svg xmlns="http://www.w3.org/2000/svg" viewBox="0 0 265.23 230.63">
  <g id="Layer_2" data-name="Layer 2">
    <g id="logos">
      <g>
        <g>
          <path d="M92.92,230.32H91.38v-23h8.37v1.48H92.92v9.75h6.45v1.5H92.92Z" style="fill: #7f8fa3"/>
          <path d="M107.61,220.27v10h-1.54v-23h3.14q3.38,0,4.93,1.59a6.52,6.52,0,0,1,1.56,4.75,8.12,8.12,0,0,1-.85,3.93A5.24,5.24,0,0,1,112,219.9l4.56,10.42h-1.73l-4.29-10Zm0-1.42h2.16a4.07,4.07,0,0,0,3.22-1.29,5.7,5.7,0,0,0,1.13-3.84A5.12,5.12,0,0,0,113,210a5,5,0,0,0-3.65-1.15h-1.71Z" style="fill: #7f8fa3"/>
          <path d="M135.46,218.79c0,3.8-.57,6.73-1.71,8.77a5.49,5.49,0,0,1-9.86,0q-1.69-3.09-1.69-8.78,0-6,1.67-8.86a5.41,5.41,0,0,1,5-2.91,5.33,5.33,0,0,1,4.9,3.06Q135.47,213.11,135.46,218.79Zm-11.65,0c0,3.42.42,6,1.28,7.74a4,4,0,0,0,7.49,0q1.28-2.59,1.28-7.77a18.4,18.4,0,0,0-1.26-7.72,4,4,0,0,0-3.73-2.6,4.07,4.07,0,0,0-3.8,2.63A18.43,18.43,0,0,0,123.81,218.79Z" style="fill: #7f8fa3"/>
          <path d="M155.05,230.32h-2l-8.7-20.62h-.12c.12,1.42.19,2.8.19,4.12v16.5H143v-23h2l8.64,20.39h.09c-.08-1.72-.13-3.16-.13-4.31V207.32h1.51Z" style="fill: #7f8fa3"/>
          <path d="M167.13,230.32h-1.54V208.8H161v-1.48h10.7v1.48h-4.58Z" style="fill: #7f8fa3"/>
        </g>
        <g>
          <path d="M21.88,136.34a.82.82,0,0,1,.92.91V143a.82.82,0,0,1-.92.91H15.27V181a.79.79,0,0,1-.91.91H8.43a.81.81,0,0,1-.91-.91V143.86H.91A.84.84,0,0,1,0,143v-5.7a.84.84,0,0,1,.91-.91Z" style="fill: #7f8fa3"/>
          <path d="M55.22,143c0,.57-.23,1-.91,1H40.06v11.39H51a.86.86,0,0,1,.91,1v5.65a.85.85,0,0,1-.91,1H40.06v11.52H54.31c.68,0,.91.28.91.91V181c0,.57-.23.91-.91.91h-21a.82.82,0,0,1-.86-.91V137.25a.82.82,0,0,1,.86-.91h21c.68,0,.91.34.91.91Z" style="fill: #7f8fa3"/>
          <path d="M97.39,136.34a1,1,0,0,1,1.15,1.14v43.31a1,1,0,0,1-1.15,1.14h-5.3A1,1,0,0,1,91,180.79V155.14h-.4L84.91,180.9a1.18,1.18,0,0,1-1.25,1H80.87a1.18,1.18,0,0,1-1.26-1L74,155.14h-.4v25.65a1,1,0,0,1-1.14,1.14H67.19a1,1,0,0,1-1.14-1.14V137.48a1,1,0,0,1,1.14-1.14h7.52a1.19,1.19,0,0,1,1.26,1l6.32,28.38,6.33-28.38a1.18,1.18,0,0,1,1.25-1Z" style="fill: #7f8fa3"/>
          <path d="M109.93,137.25a.84.84,0,0,1,.91-.91h13.68c5.36,0,8.21,2.85,8.21,8.2v13.91c0,5.3-2.85,8.21-8.21,8.21h-6.84V181a.81.81,0,0,1-.91.91h-5.93a.84.84,0,0,1-.91-.91Zm12.77,21.88a2,2,0,0,0,2.28-2.28V146.14a2,2,0,0,0-2.28-2.28h-5v15.27Z" style="fill: #7f8fa3"/>
          <path d="M151.88,174.41h13.56a.81.81,0,0,1,.91.91V181a.79.79,0,0,1-.91.91H145a.82.82,0,0,1-.92-.91V137.25a.84.84,0,0,1,.92-.91H151a.82.82,0,0,1,.92.91Z" style="fill: #7f8fa3"/>
          <path d="M198,181.93a.89.89,0,0,1-.92-.8l-1.59-8.32H185.38l-1.53,8.32a.89.89,0,0,1-.92.8h-6.09c-.63,0-.92-.34-.75-1l9.46-43.83a.89.89,0,0,1,1-.79h7.93a.87.87,0,0,1,1,.79L204.88,181c.11.63-.12,1-.8,1Zm-7.58-35.62-3.65,19.89h7.29Z" style="fill: #7f8fa3"/>
          <path d="M231.89,136.34a.81.81,0,0,1,.91.91V143a.81.81,0,0,1-.91.91h-6.61V181a.79.79,0,0,1-.91.91h-5.93a.81.81,0,0,1-.91-.91V143.86h-6.61A.84.84,0,0,1,210,143v-5.7a.84.84,0,0,1,.92-.91Z" style="fill: #7f8fa3"/>
          <path d="M265.23,143c0,.57-.23,1-.92,1H250.07v11.39H261a.86.86,0,0,1,.91,1v5.65a.85.85,0,0,1-.91,1H250.07v11.52h14.24c.69,0,.92.28.92.91V181c0,.57-.23.91-.92.91h-21a.82.82,0,0,1-.85-.91V137.25a.82.82,0,0,1,.85-.91h21c.69,0,.92.34.92.91Z" style="fill: #7f8fa3"/>
        </g>
        <circle cx="132.59" cy="54.65" r="54.65" style="fill: #77ddf9"/>
        <g id="_3Ivbaw.tif" data-name="3Ivbaw.tif">
          <path d="M158.32,61.84c0,6.16,0,12.32,0,18.48a2.18,2.18,0,0,1-3.73,1.82c-1-.79-2-1.49-3-2.22a2.07,2.07,0,0,0-3,.3c-1.46,1.59-2.87,3.23-4.31,4.84-.3.35-.6.69-.91,1a2.17,2.17,0,0,1-3.55,0c-1.57-1.73-3.09-3.52-4.66-5.24-1.4-1.53-2.44-1.53-3.84,0s-3,3.33-4.45,5c-1.28,1.49-2.6,1.51-3.91,0-1.64-1.84-3.25-3.71-4.91-5.53-1.1-1.21-2.1-1.27-3.42-.29-1,.73-2,1.45-2.93,2.2a2.14,2.14,0,0,1-2.43.27,2,2,0,0,1-1.1-2c0-11.89,0-23.77,0-35.65a24.17,24.17,0,0,1,3.24-11.57A26,26,0,0,1,120.1,24a23.46,23.46,0,0,1,11.52-3.81A24.3,24.3,0,0,1,149,25.63,24.63,24.63,0,0,1,158.18,42a29.86,29.86,0,0,1,.14,3.66ZM125,41.11a4.07,4.07,0,0,0-4.19,4.11,4.17,4.17,0,0,0,4,4.07A4.11,4.11,0,0,0,129,45.13,4,4,0,0,0,125,41.11Zm16.66,0a4,4,0,0,0-4.11,4.15,4.1,4.1,0,0,0,4,4,4.19,4.19,0,0,0,4.15-4.21A4.08,4.08,0,0,0,141.63,41.11Z" style="fill: #f6f6f6"/>
        </g>
      </g>
    </g>
  </g>
</svg>
