<svg xmlns="http://www.w3.org/2000/svg" viewBox="0 0 114.83 84.2">
  <g id="Layer_2" data-name="Layer 2">
    <g id="logo">
      <path d="M80.79,10c-1.16,3-2.09,5.77-3.37,8.41a8,8,0,0,0,0,7c7,18,13.89,36.08,20.77,54.14a6,6,0,0,1,.45,2.76,2.15,2.15,0,0,1-2.19,1.82,2.4,2.4,0,0,1-2.79-1.61c-1.08-2.71-2.1-5.45-3.15-8.17L73.53,30.22c-.08-.22-.18-.44-.35-.86-.2.46-.35.76-.48,1.08q-6,15-12,30a2.11,2.11,0,0,0,0,1.74q3.62,9,7.19,18.09a2.74,2.74,0,0,1-1,3.54,2.93,2.93,0,0,1-3.41-.53,5.12,5.12,0,0,1-.79-1.43Q59,72.65,55.36,63.4,45,37.29,34.56,11.16c-.12-.31-.26-.62-.48-1.14-1,2.5-1.89,4.79-2.79,7.1-.63,1.59-1.72,3.19-1.73,4.79s1.07,3.21,1.69,4.81L51.62,79.9c0,.1.07.2.1.3.67,1.77.18,3.26-1.26,3.8a2.87,2.87,0,0,1-3.77-1.92Q40.1,64.86,33.51,47.64,30.17,38.9,26.8,30.16c-.08-.22-.19-.43-.37-.82-1.12,2.82-2.17,5.47-3.23,8.12L5.47,82c-.44,1.1-1,2-2.36,2.15A2.58,2.58,0,0,1,.23,80.44c1-2.7,2.12-5.36,3.19-8Q17.33,37.46,31.26,2.52A4.67,4.67,0,0,1,32.37.72C34-.65,35.92,0,36.79,2.14,38.34,6,39.86,9.86,41.4,13.72q7.76,19.53,15.52,39c.13.34.29.67.53,1.22.26-.61.44-1,.61-1.46q10-25,19.92-50A4.44,4.44,0,0,1,79.18.63C80.72-.6,82.6,0,83.42,2c1,2.48,2,5,3,7.47q14,35.22,28,70.46a4.55,4.55,0,0,1,.37,2.17,2.3,2.3,0,0,1-2.14,2,2.72,2.72,0,0,1-3.11-1.82c-1.25-3.09-2.47-6.19-3.7-9.29L81.16,10.9Z"/>
    </g>
  </g>
</svg>
